<?xml version="1.0" standalone="no"?>
<!DOCTYPE svg PUBLIC "-//W3C//DTD SVG 20010904//EN"
 "http://www.w3.org/TR/2001/REC-SVG-20010904/DTD/svg10.dtd">
<svg version="1.0" xmlns="http://www.w3.org/2000/svg"
 width="900.000000pt" height="504.000000pt" viewBox="0 0 900.000000 504.000000"
 preserveAspectRatio="xMidYMid meet">
<metadata>
Created by potrace 1.10, written by Peter Selinger 2001-2011
</metadata>
<g transform="translate(0.000000,504.000000) scale(0.100000,-0.100000)"
fill="#000000" stroke="none">
<path d="M0 2520 l0 -2520 335 0 c184 0 335 4 335 9 0 5 15 19 34 32 19 13 37
32 40 43 5 19 6 19 26 1 22 -20 26 -55 8 -73 -10 -10 15 -12 122 -10 l134 3 9
35 c5 19 11 50 14 68 3 18 9 35 14 38 5 3 9 14 9 25 0 11 11 24 25 31 19 9 22
14 14 25 -16 19 -32 16 -65 -12 -16 -14 -33 -25 -37 -25 -4 0 -5 -16 -1 -35 7
-40 -15 -75 -48 -75 -19 0 -25 25 -8 35 6 3 10 20 10 36 l0 30 -50 -7 c-40 -5
-50 -4 -50 8 0 8 5 19 11 25 7 7 7 13 1 17 -6 3 -13 2 -17 -4 -3 -5 -15 -10
-25 -10 -12 0 -26 -13 -35 -30 -18 -34 -27 -37 -50 -13 -15 15 -14 18 14 42
20 17 31 36 31 53 0 35 12 42 33 17 25 -29 45 -23 64 18 20 42 43 55 43 25 0
-12 7 -27 15 -36 26 -25 19 -54 -15 -61 -34 -8 -39 -21 -11 -30 24 -7 61 14
61 35 1 8 15 24 33 35 17 11 38 33 47 48 14 26 14 29 -3 42 -23 17 -6 29 26
19 12 -4 31 -7 42 -6 18 2 19 2 3 -8 -10 -6 -18 -17 -18 -25 0 -16 50 -66 60
-60 3 2 12 27 20 55 8 28 20 56 27 62 10 8 10 14 2 24 -12 15 -2 57 12 49 5
-4 9 -15 9 -26 0 -23 0 -23 34 -5 26 13 26 13 6 27 -34 22 -16 49 31 49 28 0
39 4 39 15 0 9 9 15 25 15 18 0 25 5 25 19 0 11 4 23 10 26 5 3 10 17 10 30 0
37 53 75 103 75 38 0 47 5 84 47 29 33 38 49 28 51 -24 5 -65 -28 -65 -54 0
-36 -38 -33 -42 4 -3 23 -8 27 -38 30 -19 2 -39 7 -44 12 -5 5 -22 6 -38 3
-27 -5 -29 -4 -22 21 9 36 -19 35 -70 -4 -22 -17 -48 -30 -58 -30 -19 0 -25
25 -8 35 15 9 12 25 -5 25 -8 0 -22 -11 -31 -25 -10 -15 -26 -25 -40 -25 -17
0 -24 -6 -24 -20 0 -11 -7 -20 -15 -20 -8 0 -15 5 -15 10 0 6 -11 15 -25 20
-25 10 -25 10 -9 36 17 25 26 26 67 9 12 -5 17 -2 17 9 0 9 5 16 10 16 6 0 10
9 10 20 0 21 15 27 25 10 4 -6 18 -1 36 14 56 47 118 69 206 71 60 2 88 8 107
22 14 10 26 22 26 26 0 11 -43 -3 -52 -16 -5 -8 -13 -6 -25 5 -31 28 -67 32
-87 9 -16 -18 -31 -21 -91 -21 -40 0 -87 3 -104 6 -31 7 -42 28 -19 37 10 4
10 6 1 6 -7 1 -20 15 -29 33 l-16 32 -14 -39 c-17 -51 -46 -69 -71 -44 -8 8
-13 8 -17 0 -4 -6 -16 -11 -27 -11 -15 0 -19 6 -17 29 2 28 -24 71 -43 71 -4
0 -6 -15 -5 -32 1 -36 9 -33 -107 -37 -36 -1 -49 -5 -54 -18 -3 -10 -15 -28
-26 -40 -27 -31 -13 -47 24 -27 28 14 32 14 50 -2 10 -9 33 -17 51 -18 35 -1
49 -22 21 -33 -36 -14 -83 -52 -73 -58 6 -3 8 -11 5 -16 -9 -14 -35 -11 -35 5
0 8 -4 17 -9 21 -12 7 -61 -15 -61 -27 0 -5 -17 -8 -37 -6 -29 2 -39 8 -41 23
-3 16 -1 18 9 8 20 -19 36 -16 42 9 2 13 8 30 11 40 6 12 0 18 -24 23 -26 6
-37 1 -69 -27 -21 -18 -40 -42 -42 -53 -4 -18 -16 -24 -89 -39 -14 -3 -35 -21
-46 -39 -17 -27 -34 -37 -79 -50 -75 -21 -138 -64 -132 -89 6 -22 -9 -34 -17
-13 -3 8 -16 15 -30 15 -42 0 -68 31 -73 87 -6 61 0 73 93 182 48 57 84 90
106 98 79 27 108 40 145 66 21 15 43 27 47 27 4 0 14 7 22 15 9 8 24 15 35 15
10 0 19 4 19 8 0 5 26 21 57 37 31 15 80 48 107 74 54 49 77 65 114 81 14 6
22 17 20 27 -4 26 10 43 35 43 12 0 42 11 66 25 42 24 48 25 250 25 159 0 211
3 226 14 25 17 136 46 176 46 17 0 40 -5 52 -12 22 -12 290 -14 309 -2 5 3 4
12 -3 20 -10 12 -9 18 4 31 15 15 17 15 23 0 8 -21 44 -22 44 -2 0 8 -9 15
-20 15 -11 0 -23 7 -26 15 -6 15 -17 15 -106 -1 -21 -4 -28 -2 -28 10 0 9 8
16 20 16 11 0 20 5 20 10 0 6 11 15 25 20 35 13 31 30 -6 30 -22 0 -32 -5 -36
-20 -7 -26 -23 -26 -23 0 0 11 5 20 10 20 16 0 12 21 -6 35 -15 10 -15 15 0
59 9 27 23 58 31 69 8 12 15 29 15 38 0 9 9 24 20 34 11 10 20 26 20 35 0 9 9
25 21 36 14 12 19 26 16 43 -3 16 2 35 14 50 10 13 19 39 19 58 0 33 11 66 47
140 18 37 12 63 -16 63 -14 0 -21 8 -23 28 -2 19 -9 27 -23 28 -41 2 -45 5
-45 29 0 14 6 41 14 59 17 42 17 104 -1 131 -7 11 -13 34 -13 52 0 17 -4 34
-9 38 -6 3 -13 27 -16 53 -3 26 -10 55 -16 64 -12 23 -12 105 1 113 6 3 13 -1
16 -9 3 -9 12 -16 20 -16 8 0 14 -8 14 -18 0 -14 54 -109 73 -128 3 -3 17 19
31 49 22 47 32 58 80 80 65 31 96 59 96 87 0 23 -26 26 -76 8 -26 -9 -38 -9
-57 1 -18 10 -33 10 -64 2 -50 -14 -152 -6 -171 13 -12 12 -10 21 14 61 16 25
35 57 42 70 7 13 31 37 54 52 45 30 177 161 179 178 5 30 6 42 8 63 1 20 5 22
55 18 l54 -4 -13 32 c-10 24 -20 32 -44 34 -23 2 -31 -1 -31 -12 0 -19 -16
-21 -26 -5 -4 7 1 16 10 21 9 5 16 19 16 32 0 12 7 31 15 42 17 22 19 44 5 44
-5 0 -20 10 -31 21 -20 20 -20 23 -5 31 9 5 16 18 16 28 0 11 9 29 20 40 11
11 20 28 20 38 0 10 7 28 16 40 9 13 14 37 12 54 -2 26 2 35 22 45 37 18 60
54 60 96 0 35 3 39 42 56 24 10 57 22 73 27 25 8 30 15 27 38 -4 34 22 76 47
76 12 0 21 11 27 33 7 23 16 32 31 32 12 0 30 8 40 16 17 14 36 27 100 70 20
13 30 14 53 6 25 -10 31 -8 49 14 19 21 22 22 31 8 8 -14 15 -15 42 -5 18 6
47 19 63 28 22 11 36 13 48 7 12 -7 30 -4 64 11 25 11 48 18 51 15 3 -2 -3
-16 -12 -31 -13 -19 -23 -24 -39 -20 -17 4 -25 -1 -34 -19 -10 -22 -9 -25 7
-25 10 0 23 7 30 15 8 9 30 15 59 15 29 0 55 7 71 19 23 19 25 19 47 1 21 -16
37 -18 138 -13 78 4 115 3 115 -5 0 -6 -6 -12 -12 -15 -7 -2 -10 -8 -6 -12 4
-4 28 -2 54 4 49 12 124 6 124 -10 0 -5 -11 -16 -24 -25 -28 -18 -25 -40 7
-48 12 -3 40 -23 61 -45 38 -39 39 -42 25 -68 -8 -16 -21 -33 -29 -40 -18 -15
-20 -14 53 -19 62 -5 117 -26 117 -46 0 -6 -9 -22 -21 -34 l-21 -22 21 -11
c13 -7 21 -22 21 -36 0 -19 8 -28 34 -39 35 -14 50 -41 51 -86 0 -20 6 -26 28
-28 30 -4 34 -16 12 -38 -23 -24 -19 -30 42 -60 32 -16 80 -43 107 -61 27 -18
62 -35 77 -38 16 -4 38 -20 50 -36 22 -32 19 -50 -5 -30 -12 10 -20 10 -37 0
-17 -9 -24 -9 -27 0 -2 6 -13 11 -24 11 -12 0 -36 11 -54 25 -36 28 -84 34
-84 10 0 -8 12 -17 27 -20 16 -4 36 -10 45 -16 10 -5 26 -9 37 -9 24 0 43 -23
35 -43 -4 -12 2 -18 20 -23 28 -7 36 -34 11 -34 -8 0 -15 -4 -15 -10 0 -16 20
-12 47 10 34 27 65 25 91 -5 12 -14 29 -25 37 -25 8 0 15 -7 15 -15 0 -8 -9
-15 -19 -15 -11 0 -22 -4 -26 -9 -9 -15 32 -23 54 -12 25 14 51 14 51 1 0 -5
-6 -10 -14 -10 -8 0 -18 -5 -22 -11 -5 -9 4 -10 30 -5 32 6 38 4 43 -13 3 -12
17 -22 34 -26 31 -7 79 -41 79 -57 0 -12 -58 0 -84 18 -12 8 -35 11 -65 7 -36
-4 -50 -1 -60 11 -19 22 -64 20 -87 -5 -12 -13 -26 -18 -40 -15 -14 4 -24 1
-28 -9 -3 -8 -12 -15 -20 -15 -32 0 -26 -55 7 -64 21 -5 21 -6 5 -23 -17 -16
-16 -18 12 -29 19 -9 30 -20 30 -34 0 -16 -6 -20 -35 -20 -28 0 -35 4 -35 20
0 14 -7 20 -23 20 -13 0 -30 6 -39 13 -21 16 -32 54 -18 62 8 5 6 13 -6 26
-23 25 -38 24 -31 -2 4 -15 0 -23 -14 -26 -28 -8 -24 -21 21 -63 33 -31 40
-43 35 -63 -4 -14 -2 -28 4 -31 18 -11 13 -26 -9 -26 -24 0 -24 0 -5 -36 14
-27 14 -30 -5 -46 -25 -20 -25 -30 -1 -52 15 -14 21 -15 32 -4 10 9 46 13 116
12 98 0 104 -1 131 -27 32 -30 59 -34 105 -13 62 28 137 47 156 41 31 -9 64
12 57 38 -3 11 -1 26 3 31 5 6 6 28 4 48 -4 28 -10 38 -26 40 -11 2 -28 17
-37 33 -20 36 -55 45 -65 17 -8 -26 -35 -36 -52 -19 -10 10 -11 20 -4 40 13
34 -4 77 -30 77 -10 0 -21 5 -24 10 -7 11 38 14 49 3 25 -25 139 -43 151 -23
14 22 26 9 21 -23 -3 -17 -3 -26 0 -19 9 19 45 14 51 -7 3 -11 18 -25 34 -32
17 -6 35 -19 42 -29 7 -9 26 -24 42 -34 33 -18 46 -26 121 -73 28 -18 58 -33
66 -33 9 0 21 -6 27 -14 10 -12 8 -17 -9 -26 -12 -6 -23 -10 -24 -8 -2 2 -8
12 -13 22 -15 27 -66 30 -88 6 -18 -19 -17 -20 3 -20 23 0 30 -16 10 -22 -18
-6 -2 -37 24 -47 13 -5 34 -23 47 -41 21 -29 23 -39 17 -89 -5 -43 -3 -63 11
-88 14 -27 15 -36 5 -51 -7 -9 -15 -24 -18 -32 -3 -8 -11 -29 -19 -46 -11 -27
-11 -40 5 -100 19 -69 19 -69 -2 -85 -20 -16 -20 -16 13 -42 l34 -26 -34 -29
-35 -29 28 -36 c22 -28 30 -53 36 -107 7 -63 20 -99 74 -194 6 -11 18 -26 28
-33 9 -7 24 -32 33 -56 10 -26 29 -51 50 -66 19 -13 35 -32 35 -43 0 -18 25
-36 36 -25 3 2 9 26 14 53 5 27 16 83 25 124 9 41 18 88 19 104 1 15 10 32 19
38 14 7 16 21 13 76 -3 49 2 92 20 159 25 95 24 106 -13 193 -3 8 -5 27 -4 41
1 14 -10 48 -24 75 -34 62 -44 144 -21 163 18 15 21 47 6 56 -5 3 -10 13 -10
22 0 9 -8 22 -17 28 -16 12 -16 17 -5 49 12 32 11 39 -6 64 -28 40 -32 57 -21
95 15 54 43 84 88 91 40 6 95 -10 123 -36 7 -7 26 -22 42 -32 28 -18 30 -18
75 2 25 11 70 27 98 37 52 17 54 17 110 -6 32 -13 65 -29 74 -36 21 -18 51
-16 93 4 31 14 40 15 76 3 44 -14 96 -66 105 -103 4 -13 5 -45 3 -73 -2 -37
-7 -50 -20 -52 -14 -3 -18 3 -18 27 0 16 -4 32 -9 35 -4 3 -11 18 -14 34 -5
23 -14 30 -56 43 -43 13 -55 13 -82 2 -17 -7 -39 -13 -49 -13 -10 0 -22 -10
-26 -22 -5 -16 0 -27 19 -42 14 -12 30 -33 36 -49 9 -23 15 -26 36 -21 23 6
25 3 25 -24 0 -16 7 -35 15 -42 8 -7 15 -20 15 -29 0 -10 7 -26 14 -37 15 -18
16 -18 46 12 27 27 30 34 21 53 -6 11 -16 30 -21 41 -15 30 -2 42 20 20 14
-14 34 -20 63 -20 47 -1 94 -21 151 -64 36 -28 40 -29 82 -18 24 7 53 12 65
12 31 0 99 -39 137 -77 24 -25 40 -34 55 -30 33 8 89 28 120 44 15 8 40 14 55
13 15 -1 44 -2 64 -1 35 1 38 4 44 38 4 22 2 43 -5 55 -15 24 -1 45 32 50 17
2 23 11 27 43 5 36 8 40 31 37 19 -2 28 3 37 23 8 17 20 25 36 25 13 0 29 7
36 15 11 13 9 20 -10 40 -22 24 -24 24 -42 8 -17 -15 -21 -15 -46 -2 -15 8
-37 13 -49 11 -22 -3 -29 -27 -37 -140 -4 -61 -10 -71 -34 -55 -12 8 -16 22
-14 51 1 25 -3 44 -13 52 -21 17 -19 89 4 143 19 44 65 87 94 87 23 0 103 -38
118 -56 8 -9 31 -28 52 -41 32 -20 46 -23 80 -18 23 4 47 11 52 15 6 4 34 11
63 15 56 7 113 -9 155 -43 14 -13 24 -13 56 -4 123 37 229 -4 247 -97 12 -58
-14 -177 -63 -289 -26 -61 -26 -94 0 -152 13 -30 30 -72 37 -93 14 -45 52 -66
79 -45 9 7 42 27 73 43 46 24 61 28 75 19 27 -16 28 -53 2 -87 -19 -26 -21
-35 -11 -60 10 -25 8 -32 -14 -55 -25 -28 -31 -56 -13 -67 5 -4 40 -8 77 -10
37 -2 69 -4 71 -4 3 -1 -5 -10 -17 -21 -27 -25 -28 -36 -3 -49 14 -8 22 -7 31
4 25 31 82 9 92 -35 2 -10 -8 -16 -37 -20 -37 -5 -40 -7 -37 -34 2 -16 -2 -40
-9 -53 -19 -36 2 -51 38 -27 15 10 42 26 60 35 31 16 33 16 45 -3 18 -26 39
-16 82 39 32 41 36 53 36 103 0 56 -1 58 -32 64 -44 9 -58 23 -58 61 0 43 8
48 38 25 13 -11 31 -20 39 -20 7 0 18 -11 23 -25 10 -25 24 -32 34 -16 3 4 -3
16 -14 26 -11 10 -20 24 -20 31 0 7 -13 27 -30 44 -34 35 -36 44 -15 94 14 33
14 40 0 70 -27 56 -46 67 -113 67 -64 1 -87 14 -76 42 7 19 78 32 131 23 21
-3 59 -9 85 -12 53 -7 74 -25 94 -81 23 -65 19 -76 -21 -69 -32 6 -35 5 -35
-17 0 -18 8 -28 33 -37 17 -7 39 -21 47 -30 14 -16 160 -137 230 -190 18 -14
47 -37 65 -52 18 -16 38 -28 44 -28 8 0 11 420 11 1570 l0 1570 -4500 0 -4500
0 0 -2520z m3828 1722 c2 -7 -3 -12 -12 -12 -9 0 -16 7 -16 16 0 17 22 14 28
-4z m697 -1122 c3 -5 17 -10 31 -10 21 0 24 -4 24 -40 0 -50 -10 -50 -33 0
-10 22 -25 40 -32 40 -8 0 -17 5 -20 10 -3 6 1 10 9 10 8 0 18 -4 21 -10z
m183 -152 c18 -18 15 -28 -8 -28 -13 0 -20 7 -20 20 0 23 10 26 28 8z m557
-290 c21 -16 -6 -19 -30 -4 -26 17 -30 31 -18 62 5 14 9 11 22 -17 9 -19 20
-37 26 -41z m65 -38 c0 -5 -6 -10 -14 -10 -8 0 -18 5 -21 10 -3 6 3 10 14 10
12 0 21 -4 21 -10z m2960 -272 c0 -20 -12 -32 -42 -45 -24 -11 -28 -10 -28 4
0 9 7 25 17 35 18 21 53 24 53 6z m-50 -262 c0 -14 -35 -36 -56 -36 -28 0 -30
8 -6 26 16 12 62 20 62 10z m-6857 -1376 c15 0 27 -5 27 -10 0 -16 -93 -7 -98
9 -3 10 2 12 19 8 13 -4 36 -7 52 -7z m-210 -35 c1 -5 -6 -11 -15 -13 -11 -2
-18 3 -18 13 0 17 30 18 33 0z m47 -95 c0 -5 -7 -10 -15 -10 -8 0 -15 5 -15
10 0 6 7 10 15 10 8 0 15 -4 15 -10z m61 -40 c26 -14 24 -32 -3 -28 -13 2 -24
11 -26 21 -4 20 2 21 29 7z m-58 -15 c-6 -18 -34 -16 -41 3 -2 7 6 12 22 12
19 0 24 -4 19 -15z m-363 -216 c0 -10 -7 -19 -15 -19 -15 0 -21 31 -9 43 11
10 24 -3 24 -24z m3 -195 c8 -9 -11 -44 -23 -44 -6 0 -10 8 -10 18 0 27 18 41
33 26z m147 -104 c0 -11 -7 -20 -15 -20 -8 0 -15 9 -15 20 0 11 7 20 15 20 8
0 15 -9 15 -20z"/>
<path d="M3315 4069 c-16 -10 -39 -23 -50 -29 -53 -28 -66 -39 -90 -75 l-26
-38 45 -58 c25 -33 46 -62 46 -65 0 -4 -11 -17 -25 -30 -21 -20 -24 -27 -15
-44 6 -11 17 -20 24 -20 8 0 19 -13 24 -29 13 -38 50 -71 80 -71 19 0 23 -4
19 -20 -3 -11 -1 -20 4 -20 5 0 15 -16 23 -35 8 -19 19 -35 24 -35 6 0 35 -25
67 -55 56 -55 83 -69 71 -39 -3 8 4 33 16 54 l22 38 16 -61 c17 -66 36 -79 55
-41 21 43 36 53 66 47 40 -8 38 13 -6 61 -40 44 -43 56 -15 56 22 0 26 20 9
37 -8 8 -6 15 10 25 11 7 21 22 21 34 0 16 8 23 30 28 38 7 39 23 1 31 -36 8
-55 29 -47 51 3 8 0 27 -8 42 -7 15 -16 44 -20 64 -9 47 -26 59 -26 19 0 -24
-4 -31 -20 -31 -13 0 -24 10 -30 25 -5 14 -14 25 -20 25 -5 0 -10 6 -10 13 0
16 -53 57 -74 57 -8 0 -17 -6 -19 -12 -3 -7 -3 5 0 27 3 22 10 44 14 50 16 17
9 27 -15 21 -13 -3 -43 1 -66 9 -54 19 -68 18 -105 -6z m35 -114 c0 -22 -46
-69 -59 -61 -16 10 -14 20 10 50 23 29 49 35 49 11z m280 -190 c0 -8 -4 -15
-10 -15 -5 0 -17 -14 -25 -30 -18 -36 -35 -31 -35 10 0 22 6 31 28 38 38 14
42 14 42 -3z m-82 -107 c2 -15 13 -35 25 -43 21 -15 21 -15 -7 -15 -34 0 -55
24 -56 63 0 39 34 34 38 -5z"/>
<path d="M2944 3777 c1 -32 5 -43 19 -45 13 -3 16 -9 12 -23 -4 -12 -1 -21 9
-25 9 -3 16 -13 16 -22 0 -8 7 -22 15 -31 8 -9 23 -26 34 -38 10 -11 21 -29
23 -39 4 -23 38 -32 38 -10 0 9 6 16 14 16 19 0 31 38 16 55 -6 7 -26 21 -45
30 -55 25 -47 52 18 62 43 7 53 12 55 31 4 29 -35 47 -59 26 -24 -21 -73 -17
-101 9 -14 12 -34 27 -45 33 -18 11 -19 9 -19 -29z"/>
<path d="M3808 3633 c12 -2 30 -2 40 0 9 3 -1 5 -23 4 -22 0 -30 -2 -17 -4z"/>
<path d="M2630 3589 c-23 -41 -39 -99 -30 -104 5 -3 21 2 35 11 21 14 25 24
25 65 0 52 -12 63 -30 28z"/>
<path d="M2413 3577 c-18 -6 -33 -16 -33 -22 0 -6 -10 -15 -22 -20 -28 -12
-36 -52 -14 -61 9 -3 16 -15 16 -26 0 -23 24 -19 28 5 2 10 -3 17 -12 17 -18
0 -22 25 -5 35 6 4 17 -1 24 -11 14 -18 16 -17 49 21 57 65 46 87 -31 62z"/>
<path d="M3128 3539 c-24 -25 -23 -44 4 -69 27 -25 68 -29 47 -4 -7 8 -13 31
-13 51 -1 42 -14 49 -38 22z"/>
<path d="M2497 3494 c-8 -8 17 -54 29 -54 12 0 50 38 43 44 -8 6 -67 15 -72
10z"/>
<path d="M2662 3467 c-18 -18 -32 -42 -32 -52 -1 -20 -32 -65 -45 -65 -4 0
-27 -20 -51 -45 -27 -27 -50 -42 -59 -39 -10 4 -18 -3 -25 -22 -9 -22 -8 -31
6 -43 12 -12 18 -13 21 -4 2 7 27 36 54 65 43 46 52 51 68 41 15 -10 22 -9 31
2 7 8 29 15 50 15 21 0 43 7 50 15 14 17 46 20 55 5 3 -6 -1 -13 -10 -16 -8
-4 -25 -26 -36 -51 -12 -26 -36 -55 -59 -71 -48 -33 -61 -76 -35 -116 10 -14
24 -26 31 -26 8 0 17 -7 20 -15 6 -16 34 -21 34 -7 0 5 -9 17 -20 27 -11 10
-20 30 -20 45 0 17 -7 30 -17 35 -16 6 -15 8 7 25 14 11 32 20 41 20 9 0 21
16 29 40 9 27 19 40 31 40 12 0 21 11 27 33 8 30 12 32 48 30 l39 -1 -4 50 -3
50 -39 -5 c-40 -5 -76 14 -107 55 -19 27 -44 22 -80 -15z"/>
<path d="M3338 3419 c-10 -10 -18 -23 -18 -27 0 -12 34 -42 48 -42 16 0 15 37
0 43 -10 4 -10 8 1 15 7 5 10 15 7 21 -10 15 -18 13 -38 -10z"/>
<path d="M3066 3397 c-15 -11 -18 -22 -14 -55 4 -29 2 -45 -8 -53 -8 -6 -14
-18 -14 -26 0 -14 3 -14 23 0 12 8 21 21 19 28 -2 7 2 25 8 40 6 15 10 39 8
53 -3 25 -5 26 -22 13z"/>
<path d="M4365 3370 c-3 -5 -4 -10 -1 -10 2 0 11 -3 20 -6 11 -4 16 -1 16 10
0 18 -25 22 -35 6z"/>
<path d="M3595 3257 c-8 -99 -5 -121 17 -125 15 -3 15 1 7 32 -6 23 -7 55 0
88 7 40 6 57 -4 71 -11 16 -14 8 -20 -66z"/>
<path d="M4272 3260 c13 -20 38 -28 38 -12 0 12 -23 32 -37 32 -11 0 -11 -4
-1 -20z"/>
<path d="M2952 3263 c-7 -3 -19 -18 -27 -34 -9 -16 -21 -29 -27 -29 -6 0 -20
-7 -30 -17 -17 -15 -18 -15 -18 0 0 10 5 17 10 17 6 0 10 7 10 15 0 15 -26 21
-32 7 -1 -4 -21 -17 -43 -28 -41 -21 -60 -54 -31 -54 9 0 16 7 16 16 0 23 24
11 28 -14 3 -23 26 -30 37 -12 4 6 23 -7 44 -29 l37 -38 18 44 c10 25 28 53
39 64 18 17 19 22 8 59 -12 40 -15 43 -39 33z"/>
<path d="M3652 3248 c5 -15 28 -18 29 -3 0 6 -7 12 -17 13 -10 3 -15 -1 -12
-10z"/>
<path d="M3360 3230 c0 -11 5 -20 10 -20 6 0 10 9 10 20 0 11 -4 20 -10 20 -5
0 -10 -9 -10 -20z"/>
<path d="M2570 3215 c0 -21 -5 -25 -32 -25 -27 -1 -30 -2 -15 -11 9 -5 17 -17
17 -24 0 -22 -28 -18 -40 6 -9 16 -17 19 -41 14 -18 -4 -36 -2 -45 6 -21 17
-26 7 -13 -32 18 -53 29 -62 50 -43 16 14 18 14 29 -6 12 -22 12 -22 25 -2 8
10 28 25 45 32 20 8 30 19 30 34 0 12 5 27 11 33 13 13 5 43 -11 43 -5 0 -10
-11 -10 -25z"/>
<path d="M4034 3219 c-7 -12 15 -41 27 -33 14 8 11 31 -6 37 -8 4 -17 2 -21
-4z"/>
<path d="M4082 3159 c2 -6 8 -10 13 -10 5 0 11 4 13 10 2 6 -4 11 -13 11 -9 0
-15 -5 -13 -11z"/>
<path d="M2760 3100 c-11 -7 -12 -12 -3 -21 14 -14 46 -4 41 13 -6 16 -20 19
-38 8z"/>
<path d="M2960 3080 c0 -11 7 -20 15 -20 8 0 15 9 15 20 0 11 -7 20 -15 20 -8
0 -15 -9 -15 -20z"/>
<path d="M2275 3070 c-3 -6 1 -13 10 -16 19 -8 30 0 20 15 -8 14 -22 14 -30 1z"/>
<path d="M3320 3060 c0 -11 5 -20 10 -20 6 0 10 9 10 20 0 11 -4 20 -10 20 -5
0 -10 -9 -10 -20z"/>
<path d="M2346 3053 c-16 -3 -35 -11 -43 -19 -8 -8 -21 -14 -29 -14 -8 0 -14
-4 -14 -10 0 -5 15 -10 34 -10 19 0 38 5 41 10 3 6 15 10 26 10 12 0 19 7 19
20 0 11 -1 19 -2 19 -2 -1 -16 -4 -32 -6z"/>
<path d="M2751 3041 c-24 -15 -8 -46 24 -46 17 0 35 -4 42 -8 18 -11 25 10 12
34 -9 17 -13 19 -19 8 -7 -11 -12 -10 -27 3 -11 11 -24 14 -32 9z"/>
<path d="M3930 3026 c0 -15 40 -47 73 -59 9 -4 17 -11 17 -17 0 -5 5 -10 10
-10 16 0 12 27 -5 34 -8 3 -15 12 -15 20 0 15 -48 46 -70 46 -5 0 -10 -6 -10
-14z"/>
<path d="M2642 2978 c5 -15 28 -23 28 -10 0 5 -7 13 -16 16 -10 4 -14 1 -12
-6z"/>
<path d="M2504 2955 c-4 -8 2 -27 12 -43 28 -40 32 -55 23 -74 -11 -21 4 -32
32 -23 14 5 19 13 16 25 -3 13 2 20 19 24 29 8 31 27 6 49 -23 21 -38 22 -46
2 -10 -27 -26 -15 -26 20 0 37 -25 50 -36 20z"/>
<path d="M2955 2934 c-8 -20 -26 -49 -40 -66 -14 -16 -25 -35 -25 -43 0 -7 -7
-18 -15 -25 -8 -7 -15 -20 -15 -30 0 -13 6 -16 28 -12 34 6 48 26 56 75 4 21
13 40 21 43 16 6 38 71 29 86 -11 17 -24 7 -39 -28z"/>
<path d="M3775 2920 c-9 -15 14 -40 35 -40 30 0 33 29 4 40 -31 12 -31 12 -39
0z"/>
<path d="M3860 2907 c0 -20 30 -57 46 -57 19 0 18 13 -7 44 -22 28 -39 34 -39
13z"/>
<path d="M4934 2886 l0 -35 28 21 c34 23 32 42 -3 46 -22 3 -25 -1 -25 -32z"/>
<path d="M2460 2890 c-12 -8 -12 -10 3 -16 22 -8 50 3 42 16 -8 12 -25 13 -45
0z"/>
<path d="M5478 2793 c2 -54 7 -101 11 -105 4 -4 15 15 26 42 11 28 26 50 33
50 8 0 19 14 25 30 6 17 17 30 24 30 7 0 13 4 13 9 0 18 -21 23 -37 10 -13
-11 -17 -10 -28 4 -7 9 -25 20 -41 23 l-30 6 4 -99z"/>
<path d="M2335 2868 c-11 -6 -28 -20 -39 -30 -26 -24 -10 -29 79 -25 69 3 104
19 54 25 -15 2 -35 12 -45 23 -20 22 -22 22 -49 7z"/>
<path d="M3626 2830 c-9 -46 9 -79 44 -87 40 -8 51 -29 40 -79 -13 -53 -13
-54 9 -54 25 0 33 -24 15 -47 -13 -17 -15 -17 -28 0 -7 9 -23 17 -34 17 -30 0
-37 17 -37 100 0 74 0 75 -25 72 -14 -2 -49 -3 -78 -2 l-53 1 -23 -53 c-22
-48 -22 -55 -9 -70 14 -16 13 -21 -11 -53 -29 -38 -43 -43 -52 -20 -10 26 -40
17 -69 -21 -21 -27 -26 -42 -21 -65 5 -24 1 -32 -17 -40 -49 -22 -137 -93
-137 -110 0 -5 -11 -20 -25 -35 -14 -15 -25 -35 -25 -46 0 -17 1 -18 25 -2 14
9 25 25 25 35 0 10 6 22 14 26 8 4 35 28 61 51 30 29 51 42 62 38 14 -6 14 -8
1 -24 -25 -28 -31 -59 -13 -66 13 -5 13 -9 3 -26 -17 -27 -48 -27 -41 0 7 27
-9 25 -37 -5 -13 -14 -29 -25 -37 -25 -7 0 -13 -8 -13 -18 0 -23 -19 -42 -42
-42 -10 0 -26 -15 -37 -37 -23 -45 -51 -70 -83 -75 -15 -2 -24 -11 -26 -26 -4
-27 22 -40 43 -22 20 17 21 -9 0 -36 -8 -10 -15 -27 -15 -36 0 -10 -7 -18 -16
-18 -8 0 -12 4 -9 10 3 5 -1 23 -10 39 -8 17 -15 39 -15 51 0 19 -2 20 -27 6
-16 -8 -41 -28 -58 -45 -16 -17 -35 -31 -41 -31 -6 0 -21 -12 -35 -26 -13 -14
-42 -35 -64 -46 -22 -11 -56 -35 -76 -52 -73 -62 -118 -96 -128 -96 -5 0 -19
-13 -29 -28 -11 -15 -32 -34 -46 -42 -14 -7 -26 -20 -26 -27 0 -19 -30 -29
-40 -13 -11 18 -30 3 -30 -24 0 -13 -11 -40 -25 -60 -29 -43 -19 -53 43 -41
55 10 106 9 207 -5 95 -12 115 -21 115 -51 0 -12 7 -19 20 -19 25 0 53 -32 60
-67 5 -24 10 -27 54 -29 27 -2 54 -8 60 -15 8 -9 4 -10 -16 -5 -20 5 -28 3
-28 -7 0 -11 23 -13 110 -12 60 1 113 5 117 8 3 4 1 7 -5 7 -7 0 -12 5 -12 10
0 6 8 5 20 -2 17 -11 22 -11 29 0 5 9 17 11 34 6 17 -4 27 -2 27 5 0 6 -7 11
-15 11 -22 0 -18 27 5 33 12 3 20 14 20 27 0 18 4 21 25 18 30 -6 30 -5 8 33
-16 27 -16 29 8 51 14 13 32 22 41 20 9 -2 29 12 45 32 16 21 37 36 49 36 12
0 24 7 28 15 7 20 23 19 53 -5 14 -11 34 -20 43 -20 10 0 20 9 23 20 4 15 14
20 39 20 43 0 58 -15 51 -51 -6 -34 11 -39 27 -9 17 31 37 24 44 -15 9 -44 4
-52 -34 -60 -17 -4 -30 -10 -30 -14 0 -16 25 -31 51 -31 21 0 29 6 32 23 3 21
4 21 12 3 11 -26 -14 -69 -45 -76 -22 -6 -20 -7 15 -13 23 -4 41 -3 43 3 7 19
30 10 25 -9 -7 -28 31 -34 237 -32 151 1 186 4 193 16 4 8 14 15 21 15 9 0 13
17 12 58 -1 43 5 67 23 97 28 47 36 92 19 113 -10 11 -8 17 7 28 19 14 24 40
26 124 0 36 22 70 46 70 7 0 13 5 13 10 0 6 -7 10 -15 10 -8 0 -15 6 -15 14 0
8 7 16 15 20 11 4 15 21 15 59 0 65 13 82 46 60 13 -8 24 -22 24 -30 0 -8 7
-13 18 -11 12 3 16 12 14 31 -2 19 4 34 19 46 l21 17 -50 54 c-28 30 -48 58
-46 62 12 18 52 6 91 -28 36 -31 40 -39 30 -55 -15 -25 -8 -29 65 -40 77 -11
156 -27 168 -34 5 -3 -1 -16 -13 -28 -19 -19 -35 -22 -124 -25 -57 -2 -103 -8
-103 -13 0 -5 7 -9 15 -9 8 0 25 -12 39 -27 23 -24 27 -25 58 -13 79 31 108
44 108 52 0 4 5 8 11 8 6 0 8 -7 5 -16 -3 -8 -1 -24 4 -35 9 -15 15 -17 30 -9
12 6 20 7 20 1 0 -5 7 -12 15 -15 10 -4 19 3 25 19 5 13 23 31 40 40 16 8 30
22 30 30 0 8 9 15 19 15 22 0 106 83 90 89 -12 4 -67 -17 -89 -34 -18 -14 -84
-34 -124 -37 -30 -3 -34 6 -37 82 -1 14 -4 19 -6 13 -3 -7 -19 -13 -37 -13
-18 0 -41 -7 -52 -15 -27 -20 -47 -18 -62 6 -12 18 -11 24 7 43 12 12 21 28
21 34 0 7 5 12 10 12 6 0 10 -4 10 -10 0 -13 36 -13 60 0 12 7 21 7 25 0 3 -5
15 -15 25 -20 17 -9 18 -8 12 7 -13 32 -37 63 -48 63 -7 0 -14 -9 -17 -21 -5
-17 -9 -19 -26 -9 -12 6 -21 15 -21 20 0 16 -73 90 -89 90 -9 0 -25 -7 -35
-15 -11 -8 -29 -12 -39 -9 -11 3 -22 2 -26 -2 -8 -11 -68 -54 -76 -54 -3 0 -5
7 -5 15 0 8 4 15 9 15 5 0 11 9 14 20 4 16 11 19 30 15 20 -5 25 -2 30 16 7
25 -6 39 -35 39 -24 0 -30 14 -14 36 12 16 17 17 39 5 32 -17 47 -8 47 28 0
25 -5 30 -36 36 -20 3 -38 4 -41 1 -3 -3 -14 -1 -24 5 -22 11 -27 54 -5 46 17
-7 36 11 36 34 0 9 7 19 15 23 8 3 15 14 15 24 0 11 7 25 15 32 9 7 13 21 10
31 -4 13 -1 19 9 19 24 0 20 38 -4 45 -12 4 -27 2 -34 -4 -15 -12 -59 -1 -71
18 -10 17 -45 13 -45 -4 0 -13 -25 -71 -35 -83 -2 -2 -13 1 -24 7 -18 10 -23
7 -41 -29 -11 -22 -27 -40 -34 -40 -7 0 -20 -10 -28 -22 -13 -19 -28 -24 -94
-30 -44 -5 -89 -9 -100 -9 -14 -1 -38 16 -65 46 -54 57 -55 62 -30 70 11 3 23
16 27 27 5 17 -2 30 -36 59 -39 34 -40 38 -21 44 13 4 27 1 37 -9 33 -33 63
-14 34 22 -20 25 -85 31 -122 11 -23 -12 -37 -4 -20 13 8 8 8 17 0 31 -9 18
-12 19 -22 5 -6 -8 -26 -17 -43 -20 -26 -3 -34 0 -39 14 -8 27 -21 22 -28 -12z
m172 -147 c3 -28 0 -33 -17 -33 -23 0 -45 34 -37 56 4 9 15 14 28 12 18 -2 24
-11 26 -35z m-213 -70 c4 -16 13 -40 21 -55 15 -27 14 -28 -10 -28 -14 0 -28
-4 -31 -10 -19 -30 -85 8 -85 48 0 19 4 22 20 17 15 -5 18 -3 14 10 -4 10 1
22 12 30 30 23 53 18 59 -12z m302 -82 c38 -11 109 -79 96 -92 -10 -10 -152
-19 -158 -9 -2 3 -27 12 -56 20 -34 9 -54 21 -57 32 -2 10 -8 18 -12 18 -16 0
-70 -59 -70 -76 0 -34 -60 -114 -93 -122 -21 -5 -34 -17 -41 -37 -15 -42 -62
-89 -81 -81 -24 9 -17 44 13 63 15 10 33 26 40 35 7 10 19 18 25 18 7 0 20 17
29 38 9 20 34 57 57 82 22 25 43 56 46 70 5 24 9 26 69 25 40 -1 71 -7 82 -15
15 -13 19 -12 37 13 23 30 28 31 74 18z m-465 -87 c31 22 43 20 63 -10 19 -29
13 -43 -9 -25 -23 19 -41 3 -22 -18 18 -20 12 -28 -53 -73 -20 -14 -38 -37
-45 -58 -6 -20 -21 -39 -34 -45 -12 -5 -25 -18 -28 -27 -3 -10 -11 -18 -19
-18 -7 0 -16 -11 -19 -25 -7 -26 -20 -32 -31 -15 -3 5 3 18 15 30 11 11 20 26
20 34 0 8 13 23 29 32 29 17 41 47 41 102 0 14 11 38 25 52 23 24 24 28 10 40
-8 7 -15 21 -15 31 0 10 -4 21 -10 24 -5 3 -10 12 -10 18 0 7 15 -5 34 -27 33
-37 35 -37 58 -22z m249 -104 l-7 -35 -7 34 c-7 35 0 58 13 44 5 -4 5 -24 1
-43z m813 -85 c21 -14 24 -14 36 0 13 16 50 21 50 7 0 -5 -9 -18 -21 -31 -18
-19 -27 -21 -63 -16 -48 8 -42 5 -50 33 -9 27 13 30 48 7z m-1271 -155 c3 -11
1 -23 -4 -26 -5 -3 -9 -14 -9 -24 0 -10 -7 -25 -15 -34 -8 -8 -15 -19 -15 -25
0 -5 -5 -13 -11 -16 -11 -7 -49 27 -49 44 0 20 22 23 35 5 14 -18 14 -18 15 2
0 11 -4 24 -10 30 -6 6 -2 19 12 37 26 32 44 35 51 7z m1157 -20 c0 -12 -28
-25 -36 -17 -9 9 6 27 22 27 8 0 14 -5 14 -10z m-1250 -126 c0 -7 -10 -16 -22
-20 -12 -3 -30 -16 -39 -28 -10 -11 -21 -18 -25 -13 -4 4 2 14 14 23 12 8 22
22 22 30 0 9 5 25 11 36 11 21 12 21 25 3 8 -10 14 -24 14 -31z m-185 -24 c0
-7 -6 -15 -12 -17 -8 -3 -13 4 -13 17 0 13 5 20 13 18 6 -3 12 -11 12 -18z
m-35 -45 c-12 -15 -30 -12 -30 6 0 5 10 9 21 9 18 0 19 -2 9 -15z m870 -229
c0 -8 -4 -18 -10 -21 -5 -3 -10 3 -10 14 0 12 5 21 10 21 6 0 10 -6 10 -14z"/>
<path d="M7403 2835 c-5 -15 21 -44 40 -45 10 0 9 5 -5 35 -13 28 -26 32 -35
10z"/>
<path d="M2486 2832 c-3 -6 -1 -14 5 -17 15 -10 25 3 12 16 -7 7 -13 7 -17 1z"/>
<path d="M7660 2810 c-14 -11 -31 -20 -37 -20 -7 0 -13 -9 -13 -19 0 -10 -7
-21 -15 -25 -9 -3 -15 -18 -15 -39 0 -19 7 -40 15 -47 8 -7 15 -19 15 -27 0
-20 22 -25 53 -14 32 13 34 29 6 65 -19 24 -19 27 -4 32 18 7 38 -14 28 -29
-3 -4 2 -16 10 -25 30 -35 28 -51 -6 -54 -49 -5 -43 -33 8 -33 51 -1 64 -9 81
-51 18 -42 44 -44 74 -7 17 22 20 35 15 66 -6 33 -4 39 14 44 22 6 28 27 10
38 -6 4 -8 14 -4 23 3 9 0 35 -6 58 -17 57 -54 79 -119 70 -29 -4 -51 -2 -55
4 -9 15 -27 12 -55 -10z"/>
<path d="M4267 2813 c-4 -3 -7 -19 -7 -35 0 -15 -4 -28 -9 -28 -17 0 -40 -30
-35 -45 10 -24 29 -17 41 15 7 18 18 30 30 30 19 0 47 46 37 61 -6 11 -48 12
-57 2z"/>
<path d="M2608 2783 c0 -10 0 -28 1 -40 1 -17 -4 -23 -18 -23 -13 0 -23 -9
-27 -22 -7 -28 -115 -82 -144 -73 -22 7 -36 -11 -21 -29 29 -35 -75 -43 -124
-10 -11 8 -28 14 -38 14 -9 0 -20 7 -23 15 -4 8 -12 15 -19 15 -6 0 -22 9 -35
20 -28 24 -34 25 -54 4 -20 -20 -21 -74 -2 -74 8 0 17 4 21 10 8 12 37 1 53
-21 9 -14 21 -16 48 -12 28 5 39 2 46 -10 5 -10 22 -17 39 -17 17 0 45 -11 63
-25 18 -14 44 -25 57 -25 14 0 35 -12 49 -28 14 -16 32 -31 40 -34 21 -8 -34
-54 -82 -69 -31 -10 -39 -18 -44 -45 -7 -37 9 -67 50 -94 l26 -16 -25 -24
c-14 -13 -25 -27 -25 -32 0 -17 32 -7 58 17 15 14 37 28 50 31 29 8 49 43 31
55 -7 4 -10 11 -6 15 4 4 13 2 19 -4 30 -30 85 3 97 58 4 19 13 34 19 32 15
-3 16 14 2 23 -6 4 -9 23 -8 43 3 35 1 37 -24 34 -22 -2 -28 1 -28 18 0 11 4
20 10 20 5 0 14 9 20 21 13 23 -2 49 -27 49 -8 0 -27 9 -41 21 -18 13 -34 18
-50 14 -20 -5 -23 -3 -18 10 3 9 6 19 6 21 0 2 9 4 19 4 11 0 22 9 26 19 3 11
12 22 20 25 8 3 15 17 15 31 0 14 5 25 10 25 6 0 10 15 10 34 0 36 -19 61 -22
29z"/>
<path d="M7375 2788 c-9 -22 4 -43 17 -30 7 7 7 16 0 29 -10 17 -11 17 -17 1z"/>
<path d="M2315 2782 c-48 -6 -51 -19 -5 -24 23 -2 44 0 47 5 9 14 -10 23 -42
19z"/>
<path d="M2515 2767 c-8 -19 -31 -23 -37 -5 -5 15 -28 1 -28 -18 0 -8 6 -14
13 -14 6 0 23 -6 37 -13 21 -11 27 -10 41 4 15 15 15 18 -2 40 -16 21 -18 22
-24 6z"/>
<path d="M5980 2711 c0 -36 12 -51 41 -51 16 0 32 -7 38 -17 10 -17 10 -17 11
0 0 10 -7 33 -14 52 -13 29 -20 35 -45 35 -24 0 -31 -4 -31 -19z"/>
<path d="M2815 2709 c-4 -6 -5 -13 -2 -16 7 -7 27 6 27 18 0 12 -17 12 -25 -2z"/>
<path d="M3970 2714 c0 -16 23 -44 35 -44 18 0 18 5 5 31 -10 17 -40 27 -40
13z"/>
<path d="M7356 2698 c-13 -19 -14 -24 -2 -37 13 -14 11 -20 -15 -45 -29 -29
-37 -60 -20 -70 5 -3 14 1 21 9 7 8 19 15 27 15 11 0 13 7 8 30 -6 25 -2 34
19 51 22 17 24 23 14 44 -14 31 -32 32 -52 3z"/>
<path d="M4072 2698 c5 -15 28 -18 29 -3 0 6 -7 12 -17 13 -10 3 -15 -1 -12
-10z"/>
<path d="M4860 2693 c-69 -6 -76 -10 -55 -33 14 -16 17 -31 12 -80 -4 -44 -2
-60 7 -60 7 0 27 -16 44 -36 l32 -36 10 26 c5 14 12 26 15 26 10 0 85 -80 85
-90 0 -6 7 -10 16 -10 11 0 13 6 9 19 -4 13 1 24 15 34 18 12 18 15 5 20 -19
8 -20 56 0 63 20 8 19 23 -2 46 -14 16 -14 22 -3 43 12 22 11 28 -2 41 -16 16
-86 34 -123 32 -11 -1 -40 -3 -65 -5z m34 -134 c15 -22 25 -43 22 -46 -10 -11
-65 43 -65 65 -1 33 13 27 43 -19z"/>
<path d="M7100 2656 c0 -9 7 -16 16 -16 9 0 14 5 12 12 -6 18 -28 21 -28 4z"/>
<path d="M4586 2633 c-3 -3 -6 -17 -6 -31 0 -21 2 -22 15 -12 8 7 15 18 15 26
0 15 -15 26 -24 17z"/>
<path d="M2762 2618 c-13 -13 -16 -48 -4 -48 14 0 32 23 32 42 0 21 -11 23
-28 6z"/>
<path d="M5706 2604 c-29 -28 -33 -46 -12 -63 10 -9 16 -8 26 4 12 14 15 14
31 -1 10 -9 23 -13 28 -9 18 11 12 25 -16 36 -20 7 -23 13 -15 21 32 32 -8 43
-42 12z"/>
<path d="M5816 2622 c-8 -13 11 -35 23 -28 16 10 14 36 -3 36 -8 0 -17 -4 -20
-8z"/>
<path d="M7465 2620 c-10 -16 4 -62 15 -55 13 8 13 52 1 60 -5 3 -13 0 -16 -5z"/>
<path d="M5566 2574 c-11 -28 -6 -39 26 -57 25 -14 33 -15 39 -5 15 23 10 46
-13 62 -29 20 -44 20 -52 0z"/>
<path d="M6290 2572 c-36 -12 -38 -40 -9 -117 13 -35 29 -60 43 -66 17 -8 22
-19 22 -46 0 -27 7 -42 29 -61 33 -28 56 -84 44 -104 -10 -16 -2 -52 22 -98
44 -86 51 -109 44 -149 -5 -31 -3 -41 10 -49 14 -7 15 -13 6 -30 -6 -11 -11
-28 -11 -38 0 -15 35 -98 64 -149 6 -11 11 -56 11 -100 l0 -80 53 -27 c30 -15
60 -24 69 -21 18 7 83 -62 83 -89 0 -24 -17 -23 -30 2 -17 31 -42 26 -34 -7 4
-16 10 -32 13 -38 3 -5 6 -28 6 -50 0 -36 3 -41 40 -59 23 -10 65 -19 97 -20
31 -1 60 -5 64 -9 4 -4 39 -7 78 -7 59 1 76 5 99 24 l28 23 -20 52 c-12 28
-21 60 -21 70 0 10 -9 26 -20 36 -12 10 -18 25 -15 33 9 24 -15 81 -37 87 -15
5 -27 -1 -48 -27 -21 -25 -31 -30 -40 -22 -9 9 -8 18 5 38 21 32 16 114 -9
128 -21 12 -51 78 -48 105 3 19 -1 23 -22 23 -15 0 -27 7 -30 18 -9 29 3 104
19 122 8 9 15 28 15 42 0 30 27 59 34 37 13 -44 26 -126 26 -160 0 -22 4 -47
10 -57 18 -31 50 -122 50 -142 0 -11 7 -20 15 -20 9 0 20 -10 25 -22 7 -18 8
-12 7 27 -1 36 2 49 11 47 19 -4 74 27 67 38 -4 6 -14 10 -24 10 -25 0 -32 42
-14 77 13 25 12 36 -3 98 -30 120 -25 162 38 375 15 53 12 83 -11 99 -14 9
-21 24 -21 47 0 38 -20 61 -58 70 -15 3 -39 10 -55 16 -20 8 -31 7 -42 -2 -8
-6 -19 -9 -25 -5 -6 4 -20 -1 -30 -10 -12 -11 -20 -13 -25 -6 -11 19 -35 12
-35 -9 0 -13 10 -25 28 -32 l27 -11 -38 -10 c-31 -7 -41 -6 -56 7 -10 9 -25
16 -34 16 -8 0 -19 9 -22 20 -8 25 -17 25 -38 2 -21 -23 -21 -149 1 -174 13
-15 12 -21 -5 -54 -21 -42 -31 -48 -53 -34 -12 7 -12 13 -1 33 15 29 11 62 -8
62 -7 0 -21 -16 -30 -35 -15 -32 -19 -35 -56 -32 -55 5 -65 17 -65 74 0 48 1
49 28 48 15 -1 33 -2 40 -1 15 1 16 47 1 57 -7 4 -9 22 -6 46 5 39 3 43 -51
94 -51 47 -61 53 -89 48 -24 -5 -34 -2 -39 9 -7 19 -24 26 -44 19z m120 -166
c0 -8 12 -16 28 -18 l27 -4 -29 -12 c-16 -7 -37 -10 -47 -7 -15 5 -16 10 -7
31 12 26 28 32 28 10z m474 -65 c3 -4 19 -11 36 -14 18 -4 30 -13 30 -22 0
-22 -38 -19 -52 5 -7 11 -18 20 -25 20 -7 0 -13 5 -13 10 0 12 17 13 24 1z
m-23 -75 c15 -17 10 -25 -18 -28 -16 -2 -29 -10 -31 -20 -2 -12 2 -15 18 -11
34 9 70 -16 70 -49 0 -25 -4 -28 -30 -28 -19 0 -33 6 -35 15 -16 51 -16 51
-31 17 -16 -38 -34 -34 -34 8 0 18 -8 34 -20 43 l-21 14 21 6 c23 6 28 37 6
37 -23 0 -30 20 -13 38 15 14 17 13 27 -14 11 -28 12 -28 26 -10 8 11 14 23
14 27 0 4 8 9 18 11 12 2 18 -4 20 -22 2 -14 8 -29 13 -34z m188 12 c-5 -18
-9 -34 -9 -35 0 -2 -7 -3 -15 -3 -9 0 -15 9 -15 25 0 23 9 31 47 44 1 1 -3
-14 -8 -31z m-81 -167 c2 -24 -1 -41 -7 -41 -6 0 -11 7 -11 15 0 8 -9 24 -20
35 -34 34 -23 71 14 46 15 -9 22 -26 24 -55z m-458 -11 c0 -5 -7 -10 -15 -10
-8 0 -15 5 -15 10 0 6 7 10 15 10 8 0 15 -4 15 -10z m45 -30 c0 -22 -29 -18
-33 3 -3 14 1 18 15 15 10 -2 18 -10 18 -18z m180 -30 c25 -28 13 -52 -22 -44
-38 9 -43 15 -37 42 8 27 35 29 59 2z m59 -109 c7 -11 -32 -46 -42 -36 -4 4
-1 10 6 12 6 3 12 11 12 19 0 15 16 19 24 5z m-169 -121 c4 -6 -7 -10 -24 -10
-17 0 -31 5 -31 10 0 6 11 10 24 10 14 0 28 -4 31 -10z m151 -91 c12 -21 -25
-44 -69 -43 -52 1 -117 32 -96 45 20 13 156 11 165 -2z"/>
<path d="M5848 2556 c-11 -8 -18 -27 -18 -48 0 -20 -9 -46 -20 -61 -11 -14
-20 -39 -20 -56 0 -26 4 -31 25 -31 24 0 35 23 17 34 -4 3 -6 21 -4 40 3 29 9
37 31 42 14 3 41 12 59 20 18 8 39 14 47 14 8 0 15 9 15 20 0 16 -5 19 -23 15
-15 -4 -28 -1 -36 9 -16 19 -50 20 -73 2z"/>
<path d="M7167 2562 c-9 -13 54 -72 77 -72 2 0 7 14 11 31 5 22 3 34 -6 40
-17 11 -76 12 -82 1z"/>
<path d="M7400 2515 c0 -25 14 -33 25 -15 9 15 25 12 25 -5 0 -9 -7 -27 -16
-40 -12 -19 -22 -23 -40 -19 -26 7 -31 -5 -12 -24 9 -9 8 -12 -8 -12 -11 0
-24 4 -29 9 -6 5 -30 6 -55 2 -43 -6 -45 -8 -42 -36 4 -34 20 -57 34 -49 12 7
60 -24 54 -35 -7 -11 -85 -11 -92 0 -3 5 -12 9 -20 9 -20 0 -17 -33 6 -63 25
-32 25 -44 -1 -52 -55 -18 23 -48 157 -60 90 -9 108 -24 65 -56 -37 -27 -39
-39 -7 -39 27 0 57 34 49 56 -3 7 2 21 11 29 9 9 16 26 16 39 0 12 5 27 12 34
15 15 11 18 -35 26 -26 5 -37 4 -33 -3 4 -6 -8 -18 -25 -27 -28 -14 -38 -14
-71 -3 -26 8 -38 18 -36 28 3 15 71 45 133 60 23 5 30 12 30 31 0 20 -6 26
-27 28 -31 4 -36 23 -13 42 18 15 45 6 45 -16 0 -14 3 -14 15 -4 12 10 19 10
27 2 18 -18 38 -14 38 7 0 22 -49 51 -86 51 -30 0 -40 18 -21 38 11 10 37 16
74 17 49 2 58 5 61 21 3 23 -46 39 -145 48 -62 6 -63 5 -63 -19z"/>
<path d="M3234 2495 c-4 -9 -2 -21 3 -26 7 -7 12 -3 16 10 6 25 -11 39 -19 16z"/>
<path d="M4536 2487 c-11 -16 -13 -31 -7 -52 l9 -30 1 36 c1 23 7 39 16 43 8
3 15 10 15 16 0 18 -19 11 -34 -13z"/>
<path d="M7305 2501 c-3 -5 -1 -12 5 -16 12 -7 30 2 30 16 0 12 -27 12 -35 0z"/>
<path d="M7672 2480 c-6 -11 -12 -26 -12 -34 0 -8 -16 -20 -35 -27 -19 -7 -35
-15 -35 -19 0 -3 16 -15 35 -28 26 -16 42 -20 63 -15 15 4 36 7 47 7 16 1 21
9 23 38 3 32 -1 40 -22 50 -14 6 -26 19 -26 30 0 24 -22 23 -38 -2z"/>
<path d="M6032 2478 c-13 -13 -16 -60 -5 -71 3 -4 12 -2 19 4 23 19 37 -1 31
-42 -5 -41 8 -63 20 -32 3 10 13 26 21 36 13 14 13 24 3 57 -6 21 -15 41 -19
43 -22 13 -60 15 -70 5z"/>
<path d="M5928 2462 c-9 -9 -29 -26 -44 -36 l-27 -19 23 -19 c30 -25 50 -23
50 5 0 12 7 33 16 46 20 28 5 48 -18 23z"/>
<path d="M3152 2434 c-17 -19 -32 -44 -32 -55 0 -19 0 -19 29 2 36 26 58 66
45 79 -6 6 -21 -3 -42 -26z"/>
<path d="M4602 2438 c5 -15 28 -18 29 -3 0 6 -7 12 -17 13 -10 3 -15 -1 -12
-10z"/>
<path d="M4667 2444 c-4 -4 -7 -18 -7 -30 0 -13 -4 -26 -10 -29 -5 -3 -10 -18
-10 -31 0 -31 23 -28 28 3 3 22 28 33 75 33 27 0 34 14 18 39 -10 15 -82 27
-94 15z"/>
<path d="M7152 2430 c-11 -18 -10 -19 21 -14 49 9 59 13 52 24 -11 18 -59 11
-73 -10z"/>
<path d="M7530 2436 c0 -9 7 -16 16 -16 9 0 14 5 12 12 -6 18 -28 21 -28 4z"/>
<path d="M5647 2376 l-26 -34 45 -7 c59 -8 53 -29 -10 -33 -37 -2 -51 1 -61
15 -7 10 -17 14 -22 10 -4 -5 0 -14 10 -21 9 -7 17 -18 17 -24 0 -6 13 -21 30
-34 28 -20 29 -23 13 -40 -12 -13 -14 -21 -6 -29 15 -15 85 -28 150 -29 28 0
63 -4 77 -9 31 -12 49 6 44 46 -4 34 -26 40 -70 19 -39 -20 -92 -20 -108 -1
-21 26 30 65 85 65 26 0 50 6 59 16 19 18 19 20 6 45 -13 23 -28 24 -51 3 -19
-17 -39 -11 -39 12 0 8 -7 14 -16 14 -9 0 -25 11 -36 25 -27 35 -60 32 -91 -9z"/>
<path d="M4850 2365 c-13 -34 -13 -31 11 -64 11 -15 21 -44 22 -64 1 -20 5
-37 8 -37 3 0 15 27 26 60 16 48 17 62 7 71 -7 6 -14 20 -16 32 -5 34 -45 35
-58 2z"/>
<path d="M6555 2380 c-3 -5 -3 -15 0 -20 4 -6 8 -25 10 -42 3 -17 7 -33 10
-37 12 -11 40 16 43 42 5 41 -45 86 -63 57z"/>
<path d="M4596 2322 c-6 -10 53 -57 60 -49 5 5 -39 57 -49 57 -3 0 -8 -4 -11
-8z"/>
<path d="M4697 2317 c-7 -19 4 -33 32 -42 18 -5 22 -4 17 6 -3 8 -9 22 -12 32
-7 20 -30 23 -37 4z"/>
<path d="M7590 2315 c0 -9 5 -15 11 -13 6 2 11 8 11 13 0 5 -5 11 -11 13 -6 2
-11 -4 -11 -13z"/>
<path d="M5925 2280 c-17 -18 -17 -20 -1 -20 9 0 19 7 23 15 9 25 -2 27 -22 5z"/>
<path d="M6031 2281 c-26 -7 -42 -31 -19 -31 15 1 54 28 47 33 -2 2 -15 1 -28
-2z"/>
<path d="M7524 2266 c-4 -10 -2 -22 4 -28 8 -8 13 -7 18 6 4 10 2 22 -4 28 -8
8 -13 7 -18 -6z"/>
<path d="M7631 2256 c-7 -9 -8 -17 -2 -20 14 -9 41 4 41 20 0 18 -24 18 -39 0z"/>
<path d="M6101 2199 c-29 -10 -58 -22 -65 -27 -6 -5 -24 -12 -39 -16 -16 -4
-33 -17 -39 -31 -6 -14 -19 -25 -29 -25 -23 0 -34 -19 -20 -33 8 -8 14 -8 22
0 9 9 16 9 30 0 15 -9 24 -9 39 1 24 15 50 16 50 2 0 -5 7 -10 15 -10 23 0 18
24 -12 54 -29 29 -24 49 5 23 30 -27 64 -21 95 17 28 37 35 67 15 65 -7 -1
-37 -10 -67 -20z"/>
<path d="M7634 2147 c-34 -37 -39 -47 -32 -67 5 -13 6 -35 4 -49 -4 -17 1 -34
13 -48 26 -31 38 -29 45 7 3 17 9 43 12 60 3 16 13 34 22 39 24 14 26 78 2 91
-25 13 -20 16 -66 -33z"/>
<path d="M2978 2159 c-25 -14 -22 -36 4 -42 24 -7 38 7 38 36 0 19 -16 22 -42
6z"/>
<path d="M2694 2025 c-4 -8 -26 -24 -50 -34 -24 -11 -47 -28 -51 -38 -4 -10
-15 -24 -25 -31 -10 -7 -18 -18 -18 -24 0 -6 10 -2 23 10 13 12 28 22 34 22 6
0 31 18 54 40 24 22 47 40 51 40 4 0 8 7 8 15 0 19 -19 19 -26 0z"/>
<path d="M7310 2027 c0 -7 16 -21 35 -30 58 -28 72 -19 35 21 -23 24 -70 30
-70 9z"/>
<path d="M5910 2011 c0 -22 25 -39 38 -27 8 8 -10 38 -26 44 -7 2 -12 -6 -12
-17z"/>
<path d="M7526 1985 c-3 -8 -16 -15 -30 -15 -25 0 -41 -24 -30 -42 5 -7 12 -5
20 6 6 9 23 16 35 15 13 -1 35 -1 49 0 24 2 24 2 5 13 -11 6 -25 17 -31 25
-10 12 -13 11 -18 -2z"/>
<path d="M8064 1885 c-10 -25 5 -32 75 -37 54 -4 61 -3 45 9 -10 7 -29 13 -44
13 -14 0 -36 7 -48 16 -20 14 -23 14 -28 -1z"/>
<path d="M5090 1806 c0 -8 4 -17 9 -20 10 -7 23 19 14 28 -11 11 -23 6 -23 -8z"/>
<path d="M5015 1760 c-8 -13 3 -30 20 -30 23 0 27 18 6 30 -13 7 -22 7 -26 0z"/>
<path d="M4976 1685 c-3 -8 -15 -15 -26 -15 -32 0 -21 -32 14 -41 54 -15 85
21 48 54 -23 21 -28 21 -36 2z m24 -41 c0 -8 -4 -14 -10 -14 -5 0 -10 9 -10
21 0 11 5 17 10 14 6 -3 10 -13 10 -21z"/>
<path d="M6240 1650 c0 -5 9 -10 19 -10 11 0 23 5 26 10 4 6 -5 10 -19 10 -14
0 -26 -4 -26 -10z"/>
<path d="M8912 1653 c-30 -3 -65 -19 -125 -59 -150 -98 -154 -103 -161 -145
-5 -29 -11 -39 -25 -39 -10 0 -30 -9 -44 -20 -14 -11 -31 -20 -39 -20 -7 0
-24 -7 -36 -16 -35 -24 -154 -84 -168 -84 -7 0 -16 -9 -19 -20 -3 -11 -10 -20
-14 -20 -17 0 -101 -82 -101 -99 0 -9 7 -27 16 -40 14 -19 22 -22 53 -16 68
12 73 15 66 43 -4 21 0 30 16 40 17 11 25 11 46 -3 17 -11 36 -15 58 -11 17 4
59 0 91 -9 37 -9 80 -13 114 -9 30 3 71 5 90 4 19 0 44 4 55 9 68 31 150 52
181 46 l34 -6 0 154 0 155 -30 6 c-46 9 -36 66 12 66 15 0 18 9 18 50 0 55 8
51 -88 43z m-99 -240 c4 -3 1 -13 -5 -21 -7 -8 -17 -24 -23 -35 -13 -28 -176
-112 -185 -97 -4 6 -26 14 -49 17 -23 3 -44 9 -46 14 -3 4 10 23 29 43 32 34
36 36 100 36 59 0 70 3 89 25 21 24 74 35 90 18z"/>
<path d="M5110 1615 c-8 -10 -8 -19 -1 -34 6 -11 11 -40 11 -65 0 -60 17 -59
25 2 3 26 8 59 11 73 4 20 0 28 -15 32 -11 3 -25 -1 -31 -8z"/>
<path d="M6206 1613 c-12 -12 -6 -33 9 -33 8 0 15 6 15 14 0 17 -14 28 -24 19z"/>
<path d="M6092 1589 c2 -7 10 -15 17 -17 8 -3 12 1 9 9 -2 7 -10 15 -17 17 -8
3 -12 -1 -9 -9z"/>
<path d="M5640 1559 c-32 -20 -33 -22 -15 -35 10 -8 29 -14 42 -14 15 0 27 -8
32 -22 7 -19 9 -16 14 19 12 75 -9 90 -73 52z"/>
<path d="M7323 1525 c-20 -42 -25 -43 -43 -10 -7 14 -16 25 -20 25 -14 0 -37
-36 -43 -67 -5 -27 -3 -33 11 -33 10 0 23 5 30 12 9 9 18 9 37 0 35 -16 38
-15 32 9 -4 15 0 23 14 26 31 8 38 73 8 73 -5 0 -17 -16 -26 -35z"/>
<path d="M7661 1537 c-8 -10 -7 -26 5 -61 9 -26 14 -58 11 -72 -2 -13 0 -27 4
-30 5 -3 9 -12 9 -20 0 -21 -30 -17 -50 8 -14 18 -20 20 -33 10 -8 -7 -17 -26
-21 -42 -4 -24 -11 -30 -31 -30 -38 0 -31 -28 11 -46 19 -8 43 -28 52 -44 9
-17 20 -30 24 -30 3 0 4 -8 1 -19 -6 -23 13 -37 32 -21 8 7 15 7 19 1 7 -10
75 -13 109 -4 19 5 24 48 6 58 -7 5 -4 14 8 27 16 18 16 20 2 29 -11 6 -18 30
-23 77 -7 75 -1 106 20 98 24 -9 66 16 61 36 -3 10 -1 21 4 24 18 11 9 24 -16
24 -18 0 -31 -9 -43 -30 -20 -36 -47 -39 -63 -7 -7 12 -13 24 -13 27 -1 5 -64
50 -70 50 -2 0 -9 -6 -15 -13z"/>
<path d="M7915 1541 c-6 -11 9 -23 19 -14 9 9 7 23 -3 23 -6 0 -12 -4 -16 -9z"/>
<path d="M5200 1471 c-14 -28 -28 -51 -32 -51 -5 0 -8 -8 -8 -17 0 -13 12 -5
41 25 34 38 39 48 32 69 -9 25 -10 24 -33 -26z"/>
<path d="M7040 1505 c0 -8 6 -15 14 -15 22 0 28 17 10 24 -22 9 -24 8 -24 -9z"/>
<path d="M5321 1379 c-34 -37 -51 -64 -48 -74 13 -32 49 -9 89 55 18 30 31 80
21 79 -5 -1 -32 -28 -62 -60z"/>
<path d="M6435 1410 c3 -5 12 -10 20 -10 8 0 17 5 20 10 4 6 -5 10 -20 10 -15
0 -24 -4 -20 -10z"/>
<path d="M7366 1392 c-2 -4 2 -28 11 -53 8 -24 15 -72 14 -106 -1 -53 2 -62
19 -68 27 -9 56 10 64 40 9 34 -2 91 -20 106 -8 6 -14 18 -14 25 0 8 -6 14
-14 14 -8 0 -16 10 -18 22 -3 23 -32 37 -42 20z m94 -157 c0 -8 -4 -15 -10
-15 -5 0 -10 7 -10 15 0 8 5 15 10 15 6 0 10 -7 10 -15z"/>
<path d="M5092 1352 c-16 -34 -9 -38 33 -18 42 20 46 41 7 42 -21 1 -31 -6
-40 -24z"/>
<path d="M5014 1355 c-18 -15 -18 -15 10 -13 16 2 31 9 34 16 5 17 -20 15 -44
-3z"/>
<path d="M6153 1363 c-18 -7 -16 -23 2 -23 8 0 15 7 15 15 0 8 -1 15 -2 14 -2
0 -9 -3 -15 -6z"/>
<path d="M8047 1363 c-13 -12 -7 -23 13 -23 11 0 20 7 20 15 0 15 -21 21 -33
8z"/>
<path d="M6417 1323 c-12 -12 -7 -33 8 -33 17 0 19 9 7 28 -5 7 -11 9 -15 5z"/>
<path d="M5720 1300 c0 -9 32 -30 46 -30 4 0 -1 9 -11 20 -19 21 -35 26 -35
10z"/>
<path d="M6130 1300 c0 -5 7 -10 15 -10 8 0 15 5 15 10 0 6 -7 10 -15 10 -8 0
-15 -4 -15 -10z"/>
<path d="M6520 1294 c0 -17 23 -44 39 -44 31 0 32 13 4 32 -28 18 -43 23 -43
12z"/>
<path d="M4275 1276 c-18 -13 -18 -14 3 -25 20 -11 22 -9 22 14 0 29 0 29 -25
11z"/>
<path d="M8041 1271 c-12 -8 -9 -11 11 -16 28 -7 48 -1 48 16 0 12 -40 12 -59
0z"/>
<path d="M6610 1245 c0 -21 28 -31 43 -16 9 9 8 14 -3 21 -22 14 -40 12 -40
-5z"/>
<path d="M4343 1234 c-7 -19 2 -28 22 -21 19 8 19 23 0 31 -9 3 -18 -1 -22
-10z"/>
<path d="M4434 1235 c-8 -21 1 -31 50 -56 28 -14 51 -19 63 -14 16 6 16 8 -6
16 -13 5 -36 23 -51 39 -31 33 -48 38 -56 15z"/>
<path d="M4219 1224 c-12 -14 -11 -19 9 -32 12 -8 22 -19 22 -25 0 -17 -34
-36 -64 -37 -25 0 -28 3 -24 25 3 14 1 25 -4 25 -18 0 -58 -33 -58 -47 0 -8
-17 -21 -37 -30 -26 -10 -43 -26 -55 -51 -10 -20 -16 -38 -14 -40 3 -2 22 -6
44 -9 35 -5 41 -9 46 -36 7 -35 -2 -49 -17 -26 -10 16 -14 16 -51 -1 -23 -11
-53 -21 -68 -25 -24 -5 -28 -10 -28 -40 0 -31 -3 -35 -25 -35 -23 0 -24 2 -13
25 9 21 7 30 -16 65 -32 49 -32 50 0 50 24 0 26 -3 21 -30 -6 -25 -3 -30 14
-30 14 0 21 9 26 31 3 17 11 33 17 35 7 3 10 19 8 38 -3 28 -9 35 -30 39 -15
2 -34 7 -43 11 -12 5 -18 1 -22 -13 -4 -17 -13 -21 -45 -21 -26 0 -42 -5 -46
-15 -8 -21 -176 -22 -176 -1 0 8 6 16 13 19 9 3 9 8 -2 18 -11 11 -14 11 -18
1 -7 -17 -32 -42 -45 -42 -5 0 -12 9 -15 20 -7 25 -23 26 -23 2 0 -9 -9 -23
-20 -30 -30 -18 -15 -45 21 -37 34 8 39 -9 7 -26 l-21 -11 24 -19 c22 -18 23
-20 7 -30 -27 -15 -22 -27 14 -31 17 -2 33 -9 36 -15 6 -19 -72 -17 -88 3 -7
8 -25 14 -38 12 -14 -2 -27 3 -29 10 -3 6 0 12 5 12 6 0 17 13 25 29 17 33 9
41 -40 41 -26 0 -26 0 -20 -66 5 -66 5 -66 -34 -106 -21 -22 -39 -48 -39 -57
-1 -23 -32 -59 -55 -63 -18 -3 -20 2 -17 47 2 28 10 57 17 65 17 19 5 37 -47
69 -21 12 -38 26 -38 30 0 15 13 21 26 10 32 -27 104 35 74 65 -5 5 -10 20
-10 33 0 16 -7 24 -25 29 -30 7 -51 -7 -59 -41 -7 -29 -38 -40 -65 -23 -29 18
-36 4 -35 -62 1 -57 0 -59 -29 -70 -53 -18 -58 -15 -51 33 10 61 21 87 39 87
8 0 15 9 15 19 0 10 7 21 15 25 18 6 20 56 3 56 -6 0 -22 -10 -34 -21 l-23
-22 -31 27 c-38 32 -80 35 -80 7 0 -28 -38 -53 -61 -41 -25 14 -29 13 -29 -9
0 -10 -7 -21 -15 -25 -8 -3 -15 -12 -15 -21 0 -8 -9 -15 -20 -15 -24 0 -26
-16 -5 -36 21 -21 19 -31 -7 -45 -13 -7 -26 -18 -31 -25 -5 -8 -19 -11 -42 -7
-41 7 -75 -17 -75 -51 0 -15 -10 -25 -30 -33 -24 -9 -30 -17 -30 -41 0 -17 6
-33 13 -35 10 -4 10 -6 0 -6 -15 -1 -18 -61 -3 -61 5 0 14 9 20 20 15 28 26
25 39 -11 14 -41 15 -39 -12 -39 -13 0 -27 -4 -33 -9 -5 -5 -20 -11 -33 -13
-14 -2 -25 -11 -27 -21 -4 -30 -11 -30 -26 0 -12 25 -12 30 4 46 10 9 18 23
18 30 0 6 -5 4 -11 -5 -15 -27 -31 -21 -27 9 2 20 12 32 36 44 l34 15 -23 15
c-21 15 -21 16 -5 42 11 16 15 34 11 47 -5 17 -2 20 19 20 16 0 26 6 26 15 0
8 9 19 20 25 11 6 23 22 26 36 5 20 11 24 28 20 25 -6 51 7 42 22 -8 13 -106
13 -106 0 0 -22 -19 -4 -24 25 -15 71 -13 82 14 81 27 -1 40 11 40 38 0 29
-33 25 -78 -9 -42 -32 -72 -42 -72 -24 0 5 7 11 15 15 22 8 18 31 -8 43 -20
10 -19 11 21 22 50 14 55 31 8 31 -35 0 -95 -43 -76 -55 21 -13 10 -35 -17
-35 -31 -1 -63 -21 -63 -39 0 -9 10 -10 32 -6 l33 7 -24 -25 c-33 -37 -66 -23
-66 27 0 19 -3 36 -7 36 -5 0 -12 0 -18 0 -5 0 -10 -13 -10 -28 0 -16 -9 -37
-20 -47 -11 -10 -20 -24 -20 -32 0 -18 -26 -17 -34 2 -7 19 -35 19 -42 0 -4
-8 -1 -22 6 -30 14 -17 15 -17 -22 -33 -24 -10 -28 -17 -28 -52 0 -37 -2 -41
-21 -35 -18 6 -20 4 -15 -13 4 -13 1 -22 -9 -26 -8 -3 -15 -12 -15 -21 0 -20
39 -19 62 2 14 12 21 14 30 5 16 -16 2 -42 -22 -42 -11 0 -29 -5 -39 -12 -14
-9 -26 -9 -43 -1 -27 12 -48 7 -48 -13 0 -9 11 -14 30 -14 33 0 38 -15 17 -44
-19 -26 -67 -12 -67 20 0 20 -5 24 -30 24 -34 0 -42 -25 -12 -35 28 -8 56 -75
32 -75 -5 0 -10 9 -10 19 0 24 -22 40 -28 21 -7 -19 -53 -60 -68 -60 -7 0 -25
-11 -40 -25 -15 -14 -33 -25 -39 -25 -7 0 -15 -7 -19 -15 -8 -21 -42 -19 -66
5 -24 24 -26 40 -5 40 8 0 15 7 15 15 0 23 -7 19 -52 -28 -43 -45 -52 -82 -24
-102 9 -7 15 -23 14 -36 -3 -20 2 -25 25 -27 39 -5 33 -36 -8 -40 -17 -2 -36
-9 -43 -14 -16 -14 -28 -2 -15 14 18 22 21 54 7 72 -7 10 -17 15 -23 11 -7 -3
-11 3 -11 15 0 17 -4 20 -19 15 -20 -6 -61 13 -61 27 0 5 7 8 15 8 8 0 15 -5
15 -11 0 -20 25 -2 26 18 1 12 4 28 7 36 3 9 0 20 -7 26 -9 7 -20 2 -40 -19
-32 -35 -41 -37 -55 -13 -5 10 -12 15 -16 12 -3 -4 1 -14 10 -23 28 -28 11
-46 -39 -44 -32 2 -51 -3 -65 -16 -20 -18 -22 -18 -41 -1 -11 10 -26 15 -35
11 -14 -5 -13 -11 12 -44 59 -78 66 -102 29 -102 -17 0 -27 7 -32 22 l-7 23
-8 -23 c-5 -12 -17 -25 -26 -29 -10 -4 -24 -15 -32 -26 -9 -12 -21 -17 -35
-13 -20 5 -24 0 -33 -41 -13 -57 -8 -76 21 -69 12 3 28 1 36 -4 12 -8 12 -10
-3 -16 -10 -3 -31 -4 -47 0 -25 5 -30 2 -30 -14 0 -29 38 -40 140 -40 87 0 89
0 113 31 23 30 25 31 31 11 4 -11 21 -25 38 -31 41 -15 131 -14 146 1 9 9 15
9 24 0 15 -15 358 -17 358 -2 0 6 9 10 20 10 11 0 20 -4 20 -10 0 -5 14 -10
30 -10 17 0 30 5 30 10 0 6 6 10 14 10 8 0 16 7 20 15 3 8 12 15 20 15 8 0 22
10 30 22 13 18 18 19 31 8 8 -7 15 -17 15 -23 0 -14 -32 -36 -52 -37 -9 0 -20
-5 -23 -10 -10 -16 670 -3 706 14 9 4 21 1 28 -7 9 -12 50 -15 196 -16 102 -1
185 1 185 5 0 4 -7 12 -17 19 -9 7 -13 17 -9 23 12 20 34 13 48 -15 l13 -28
213 -3 c135 -1 220 1 232 8 13 7 20 7 20 1 0 -7 60 -10 159 -10 l158 -1 -5 25
c-5 28 -23 32 -42 10 -7 -8 -19 -15 -26 -15 -16 0 -19 26 -4 35 17 11 11 25
-15 35 -14 5 -25 16 -25 24 0 25 19 28 37 6 10 -11 25 -20 35 -20 9 0 21 -7
26 -17 6 -10 16 -14 26 -10 25 10 32 38 13 52 -10 7 -17 16 -17 20 0 4 7 2 15
-5 14 -12 35 -6 35 10 0 4 16 24 35 43 19 19 35 42 35 51 0 20 14 20 45 0 32
-21 31 -30 -1 -46 -15 -7 -26 -17 -25 -23 3 -15 44 -7 57 10 6 8 19 15 29 15
13 0 16 5 11 25 -4 14 -2 25 4 25 5 0 19 9 30 20 25 25 45 17 28 -10 -16 -25
-2 -38 24 -21 15 9 23 10 32 1 8 -9 5 -16 -11 -30 -25 -20 -30 -40 -10 -40 14
0 47 -35 47 -50 0 -15 -17 -12 -24 5 -8 21 -56 19 -72 -2 -13 -17 -15 -17 -25
0 -12 21 -32 22 -49 2 -7 -8 -25 -15 -41 -15 -16 0 -29 -4 -29 -10 0 -16 -27
-12 -34 5 -6 17 -66 21 -66 4 0 -5 16 -17 35 -25 19 -8 35 -18 35 -23 0 -5 12
-12 27 -16 l28 -7 -25 -19 -25 -19 28 0 c15 0 36 6 47 12 16 10 24 10 40 0 15
-9 207 -12 855 -12 828 0 835 0 835 20 0 25 5 25 32 0 22 -20 33 -20 1510 -20
l1488 1 0 379 c0 364 -1 380 -19 380 -10 0 -29 -9 -43 -19 l-25 -20 -34 31
c-19 18 -49 37 -67 43 -18 7 -33 15 -33 18 1 4 1 12 1 18 0 7 11 8 29 4 23 -5
32 -2 45 17 9 12 16 33 16 46 0 22 -3 24 -29 19 -23 -5 -30 -2 -34 13 -7 26
-31 25 -56 -1 -17 -18 -27 -20 -65 -15 -49 8 -76 33 -76 73 0 19 -5 23 -33 23
-39 0 -57 -15 -57 -47 0 -30 -42 -57 -94 -60 -23 -1 -57 -3 -76 -5 -31 -3 -35
0 -35 22 0 14 5 25 12 25 23 0 28 17 9 31 -31 22 -53 17 -76 -21 -14 -22 -29
-35 -43 -35 -11 0 -28 -7 -38 -16 -23 -21 -64 -2 -54 24 17 41 16 49 -5 55
-19 5 -22 10 -16 40 l6 33 -77 -2 c-74 -2 -79 -3 -94 -30 -11 -22 -24 -30 -50
-32 -19 -2 -38 -7 -43 -12 -5 -5 -17 -3 -28 3 -16 10 -22 8 -38 -13 -11 -14
-20 -31 -20 -38 0 -10 -12 -13 -40 -11 -21 2 -42 0 -46 -4 -15 -14 -34 -6 -34
14 0 18 5 20 26 16 27 -5 41 11 30 38 -5 13 -9 13 -25 3 -16 -10 -26 -9 -53 3
-22 11 -42 13 -60 8 -24 -6 -28 -4 -28 12 0 16 -7 19 -40 19 -39 0 -40 -1 -40
-34 0 -33 -3 -36 -47 -48 -45 -13 -48 -13 -53 6 -8 30 -36 43 -60 28 -28 -17
-30 -16 -30 23 0 19 5 35 10 35 6 0 10 5 10 11 0 7 -7 8 -17 4 -23 -10 -31
-10 -73 0 -31 7 -33 6 -21 -9 12 -14 11 -19 -2 -34 -11 -12 -13 -22 -6 -35 6
-9 7 -23 2 -30 -4 -6 -6 -22 -4 -34 1 -15 -3 -23 -13 -23 -15 0 -29 30 -30 65
-1 13 -9 21 -22 23 -17 2 -23 -3 -28 -31 -5 -27 -11 -33 -29 -33 -17 1 -23 -5
-25 -25 -3 -23 -9 -27 -50 -33 -56 -7 -97 16 -97 55 0 34 48 35 53 2 4 -25 26
-31 39 -10 4 8 16 16 26 20 21 8 22 27 3 53 -13 16 -18 17 -35 6 -17 -10 -21
-10 -21 2 0 8 5 16 12 18 7 3 9 12 5 22 -5 13 -14 17 -32 12 -19 -5 -30 0 -47
19 -31 36 -86 33 -190 -9 -45 -19 -92 -37 -103 -41 -19 -7 -19 -7 3 -18 12 -6
22 -19 22 -31 0 -12 7 -32 16 -44 22 -32 12 -50 -33 -57 -21 -3 -46 -11 -57
-16 -10 -6 -22 -7 -27 -2 -12 12 18 53 39 53 9 0 23 4 31 9 11 7 5 13 -25 26
-21 9 -50 18 -64 19 -14 1 -33 6 -44 12 -24 14 -4 29 36 26 23 -2 28 2 28 22
0 13 -7 29 -15 36 -14 11 -14 15 2 32 17 19 17 20 0 29 -9 6 -17 16 -17 24 0
20 -37 37 -63 29 -26 -8 -67 -43 -67 -58 -1 -30 -82 -86 -124 -86 -12 0 -33
-11 -46 -25 l-24 -25 -23 22 c-21 19 -27 21 -44 9 -18 -10 -24 -10 -40 5 -10
9 -19 23 -19 31 0 21 -19 15 -60 -17 -34 -27 -44 -30 -104 -27 -61 2 -66 4
-66 25 0 15 -8 26 -25 32 -14 5 -25 14 -25 20 0 5 -7 10 -15 10 -8 0 -15 -5
-15 -10 0 -6 7 -13 15 -16 22 -9 18 -19 -10 -32 -14 -6 -25 -20 -25 -30 0 -36
-15 -32 -57 15 l-43 47 -31 -32 c-17 -18 -42 -32 -54 -32 -13 0 -34 -12 -47
-27 -27 -33 -99 -93 -110 -93 -5 0 -8 7 -8 15 0 8 -5 15 -10 15 -6 0 -15 12
-20 26 -9 22 -14 25 -41 19 -28 -6 -30 -5 -24 14 3 12 2 21 -3 21 -15 0 -64
-27 -72 -40 -4 -7 -15 -4 -32 10 -27 21 -48 18 -89 -12 -23 -16 -49 -3 -49 26
0 19 6 25 28 28 21 2 28 9 30 32 3 27 2 28 -30 23 -28 -4 -56 -11 -78 -17 -3
-1 4 -5 15 -9 19 -7 18 -9 -7 -33 -23 -20 -26 -29 -19 -54 4 -17 15 -30 27
-32 53 -8 64 -13 64 -32 0 -26 -14 -32 -36 -15 -22 17 -58 19 -84 5 -27 -15
-46 -3 -80 47 -34 50 -35 53 -17 53 6 0 19 5 27 10 23 14 -16 38 -60 36 -61
-3 -85 -38 -34 -50 18 -5 24 -11 20 -23 -4 -8 -1 -22 5 -30 14 -16 16 -14 -48
-47 -58 -29 -79 -20 -43 19 14 15 20 30 16 41 -5 13 -9 15 -18 6 -7 -7 -22
-12 -35 -12 l-23 0 20 34 19 35 -22 7 c-24 7 -67 49 -67 65 0 5 -11 9 -25 9
-21 0 -25 5 -25 29 0 16 4 31 10 33 5 2 -12 4 -40 5 -27 1 -52 -2 -55 -7 -4
-6 -13 -10 -21 -10 -10 0 -14 12 -14 40 0 22 -4 40 -8 40 -15 0 -40 -25 -46
-46 -5 -18 -1 -24 24 -33 40 -13 37 -44 -4 -51 -37 -6 -44 -26 -14 -36 13 -4
27 -12 33 -19 22 -27 52 -23 85 11 17 19 37 31 42 28 7 -5 4 -12 -8 -21 -17
-13 -18 -16 -4 -41 9 -15 25 -28 37 -30 11 -2 29 -12 39 -23 17 -19 16 -20 -9
-47 -15 -16 -27 -36 -27 -46 0 -19 -37 -55 -57 -56 -7 0 -13 7 -13 15 0 8 5
15 10 15 6 0 10 7 10 15 0 27 -29 28 -61 1 -17 -14 -35 -26 -40 -26 -5 0 -9
-7 -9 -15 0 -8 7 -15 15 -15 8 0 15 -6 15 -13 0 -9 -10 -12 -30 -9 -22 3 -30
0 -30 -11 0 -11 9 -15 28 -14 23 2 28 -2 30 -25 2 -16 8 -28 13 -28 5 0 9 -7
9 -15 0 -20 -40 -35 -62 -24 -15 8 -16 13 -6 29 9 14 10 22 1 31 -8 8 -13 6
-18 -10 -3 -12 -15 -21 -26 -21 -23 0 -24 -16 -4 -63 17 -40 8 -75 -28 -111
-10 -10 -16 -25 -12 -33 10 -26 -22 -63 -55 -63 -16 0 -32 5 -35 10 -3 6 -10
10 -16 10 -5 0 -4 -9 3 -20 11 -17 10 -22 -2 -31 -8 -5 -27 -7 -41 -5 -14 3
-32 0 -38 -7 -17 -16 -41 16 -34 46 3 16 2 18 -5 9 -5 -8 -18 -19 -29 -25 -12
-7 -30 -18 -42 -25 -19 -12 -21 -11 -21 13 0 14 4 25 9 25 5 0 12 8 15 18 8
23 86 52 149 54 41 2 47 5 47 24 0 12 -5 24 -12 26 -6 2 -8 10 -4 16 7 12 16
11 66 -6 12 -4 13 -2 3 9 -19 20 -16 29 16 40 34 12 48 48 26 65 -20 15 -19
24 4 24 13 0 20 9 24 30 4 16 16 50 27 74 11 25 20 49 20 54 0 5 10 13 23 19
12 6 31 27 42 48 l19 37 -29 24 c-17 13 -45 27 -64 30 -21 4 -35 14 -38 25 -6
23 -23 25 -23 4 0 -8 -7 -15 -16 -15 -12 0 -15 6 -10 23 4 12 9 37 12 56 2 18
9 41 14 51 32 59 31 68 -9 99 -35 28 -40 29 -52 15z m2226 -133 c7 -12 -12
-24 -25 -16 -11 7 -4 25 10 25 5 0 11 -4 15 -9z m-2235 -81 c8 -15 6 -21 -10
-30 -26 -14 -25 -24 3 -39 22 -11 22 -11 -3 -6 -14 2 -32 5 -41 5 -9 0 -21 11
-27 25 -6 14 -19 25 -27 25 -9 0 -13 5 -10 10 3 6 19 10 35 10 16 0 32 5 35
10 10 16 34 11 45 -10z m-389 -34 c-8 -10 -9 -16 -1 -21 15 -9 12 -25 -4 -25
-7 0 -19 -7 -26 -15 -8 -9 -29 -15 -55 -15 -41 0 -43 2 -48 33 -4 31 7 50 28
44 6 -2 11 -13 13 -25 4 -25 27 -46 42 -37 5 3 10 19 10 35 0 34 27 67 43 51
7 -7 6 -15 -2 -25z m3000 24 c17 0 9 -19 -12 -31 -13 -6 -25 -7 -30 -2 -14 14
1 45 18 39 8 -3 19 -6 24 -6z m-561 -36 c0 -14 -21 -19 -33 -7 -9 9 13 34 24
27 5 -3 9 -12 9 -20z m1774 20 c22 -8 20 -31 -3 -44 -15 -8 -29 -6 -55 7 -32
15 -41 41 -10 29 7 -3 16 -1 19 4 7 11 26 13 49 4z m-5047 -34 c8 -11 9 -21 3
-25 -8 -5 -30 24 -30 39 0 13 16 5 27 -14z m257 -21 c-7 -12 -41 -11 -49 1 -4
6 -1 18 6 26 10 13 14 12 30 -2 10 -9 16 -21 13 -25z m2351 21 c-5 -16 -2 -20
19 -20 32 0 76 -17 76 -29 0 -6 -17 -13 -37 -16 -90 -15 -108 -31 -79 -70 14
-19 15 -19 35 -1 12 11 24 17 27 14 9 -10 -30 -69 -58 -86 -25 -15 -28 -15
-68 13 -40 27 -42 31 -37 68 7 48 13 54 38 38 29 -18 34 -7 19 39 -16 48 -3
70 42 70 25 0 28 -3 23 -20z m410 10 c-3 -5 -13 -10 -21 -10 -8 0 -14 5 -14
10 0 6 9 10 21 10 11 0 17 -4 14 -10z m-3557 -23 c2 -12 -3 -17 -17 -17 -12 0
-21 6 -21 13 0 31 32 34 38 4z m3402 -27 c0 -23 -18 -36 -32 -22 -7 7 -6 17 2
31 13 24 30 19 30 -9z m880 25 c0 -15 -38 -45 -57 -45 -33 0 -28 17 7 25 17 4
30 11 30 16 0 5 5 9 10 9 6 0 10 -2 10 -5z m870 -15 c0 -11 -7 -20 -15 -20
-18 0 -19 6 -2 25 16 19 17 18 17 -5z m-4740 -4 c0 -21 -15 -28 -45 -20 -20 5
-23 9 -14 20 15 19 59 18 59 0z m730 -7 c0 -5 -7 -9 -15 -9 -15 0 -20 12 -9
23 8 8 24 -1 24 -14z m4499 12 c19 -12 5 -31 -24 -31 -13 0 -27 5 -31 11 -7
11 12 29 31 29 6 0 16 -4 24 -9z m-5778 -23 c25 -31 24 -38 -6 -38 -27 0 -41
20 -31 45 7 20 15 19 37 -7z m2877 -25 c3 -20 -1 -23 -28 -23 -34 0 -52 26
-29 41 24 15 54 6 57 -18z m1273 -4 c25 -36 15 -53 -25 -43 -20 5 -26 12 -26
33 0 50 19 54 51 10z m1007 3 c5 -30 -20 -38 -53 -16 -26 17 -26 18 -9 31 27
20 58 12 62 -15z m1247 8 c0 -9 -11 -16 -27 -18 -27 -3 -38 14 -21 32 12 12
48 2 48 -14z m-2665 1 c0 -5 -14 -13 -32 -16 -17 -4 -38 -14 -46 -21 -16 -16
-42 -19 -42 -4 0 11 78 49 103 50 9 0 17 -4 17 -9z m712 -6 c0 -5 -5 -11 -11
-13 -6 -2 -11 4 -11 13 0 9 5 15 11 13 6 -2 11 -8 11 -13z m607 1 c19 -23 -4
-60 -32 -52 -12 4 -34 9 -49 12 -36 8 -35 17 5 37 41 20 61 21 76 3z m1136 4
c3 -5 -3 -10 -14 -10 -12 0 -21 5 -21 10 0 6 6 10 14 10 8 0 18 -4 21 -10z
m-3230 -35 c0 -16 -6 -20 -32 -19 -23 1 -33 -3 -36 -18 -4 -15 -11 -18 -27
-13 -16 5 -26 1 -36 -14 -17 -23 -34 -27 -51 -10 -15 15 -5 39 17 39 25 0 90
28 90 39 0 11 27 20 55 18 13 -1 20 -9 20 -22z m2871 15 c41 0 28 -28 -16 -35
-43 -7 -60 -2 -60 20 0 16 19 25 38 19 8 -2 25 -4 38 -4z m-5886 -18 c0 -21
-18 -42 -37 -42 -19 0 -16 31 5 46 23 18 32 17 32 -4z m276 3 c4 -8 3 -22 0
-31 -5 -14 -9 -12 -25 7 -14 17 -16 26 -8 31 18 12 27 10 33 -7z m1154 8 c-1
-24 -14 -53 -25 -53 -10 0 -35 40 -35 55 0 3 14 5 30 5 17 0 30 -3 30 -7z
m-220 -38 c0 -19 -11 -19 -36 0 -18 14 -18 14 9 15 17 0 27 -5 27 -15z m524
-15 c33 12 41 8 32 -16 -4 -11 -13 -14 -29 -10 -12 3 -32 6 -44 6 -18 0 -23 6
-23 26 l0 26 18 -22 c15 -18 21 -20 46 -10z m1007 -10 c6 0 7 -4 4 -10 -9 -15
-35 -12 -35 4 0 8 -7 17 -16 20 -8 3 -12 11 -9 17 5 7 14 3 26 -10 11 -12 24
-21 30 -21z m1413 25 c6 -16 -9 -65 -20 -65 -13 0 -44 33 -44 45 0 7 10 17 23
23 30 15 34 14 41 -3z m326 0 c0 -8 -11 -22 -25 -31 -24 -16 -27 -16 -40 2
-25 33 -18 44 25 44 29 0 40 -4 40 -15z m-3782 -22 c-2 -15 3 -18 30 -15 22 1
35 -3 38 -13 4 -8 15 -15 25 -15 12 0 23 -10 29 -25 5 -14 16 -25 25 -25 8 0
22 -11 31 -25 9 -14 23 -25 30 -25 8 0 14 -4 14 -10 0 -5 -9 -10 -20 -10 -11
0 -20 5 -20 10 0 6 -7 10 -15 10 -8 0 -15 6 -15 13 0 14 -40 37 -65 37 -8 0
-15 -4 -15 -10 0 -5 -11 -10 -25 -10 -14 0 -25 6 -25 13 0 22 -45 58 -63 51
-10 -3 -17 -10 -17 -15 0 -5 -7 -9 -15 -9 -7 0 -18 -8 -24 -17 -12 -23 -25
-11 -16 16 6 19 91 90 108 91 4 0 7 -8 5 -17z m1692 2 c0 -8 -7 -15 -15 -15
-8 0 -15 7 -15 15 0 8 7 15 15 15 8 0 15 -7 15 -15z m250 -17 c0 -26 -15 -38
-49 -38 -51 0 -55 7 -18 40 25 22 34 26 49 16 10 -6 18 -14 18 -18z m2788 1
c4 -31 -15 -41 -58 -32 -35 7 -37 16 -9 44 28 28 63 22 67 -12z m1052 16 c0
-9 -9 -15 -22 -15 -22 1 -23 1 -4 15 25 19 26 19 26 0z m-5005 -4 c8 -14 -10
-22 -30 -15 -13 5 -14 8 -3 15 17 11 26 11 33 0z m370 -21 c0 -18 5 -25 19
-25 11 0 21 -6 24 -13 5 -17 -27 -27 -48 -14 -10 6 -34 8 -54 5 -20 -3 -36 -3
-36 0 0 3 15 21 33 40 37 40 62 43 62 7z m175 15 c0 -8 -7 -15 -15 -15 -16 0
-20 12 -8 23 11 12 23 8 23 -8z m-753 -15 c15 -22 7 -50 -13 -50 -9 0 -14 12
-14 35 0 39 9 44 27 15z m1754 10 c10 -6 19 -17 19 -24 0 -16 -42 -46 -65 -46
-20 0 -20 44 1 64 18 19 20 19 45 6z m1019 6 c0 -3 -4 -16 -10 -30 -11 -30
-54 -38 -43 -8 9 25 53 57 53 38z m-2680 -23 c-1 -22 -19 -34 -43 -27 -29 7
-35 19 -14 27 19 8 57 8 57 0z m2250 -3 c0 -5 -8 -13 -17 -18 -12 -7 -17 -25
-18 -68 0 -33 -4 -58 -8 -56 -4 1 -11 2 -17 2 -17 0 -5 74 18 113 22 35 42 48
42 27z m-3207 -22 c-24 -24 -37 -21 -27 6 3 9 16 16 27 16 l21 0 -21 -22z
m2407 3 c5 -11 10 -28 10 -38 0 -15 -4 -14 -20 7 -21 27 -26 50 -10 50 5 0 14
-9 20 -19z m-2640 -50 c0 -13 -26 -32 -33 -24 -4 3 -7 17 -7 30 0 14 -6 23
-16 23 -8 0 -12 5 -9 10 7 11 65 -25 65 -39z m2720 39 c0 -5 -7 -10 -15 -10
-8 0 -15 5 -15 10 0 6 7 10 15 10 8 0 15 -4 15 -10z m2093 -10 c5 -4 4 -17 -2
-28 -13 -25 -80 -40 -92 -20 -13 19 -11 26 11 48 20 20 61 20 83 0z m307 7 c0
-8 -9 -22 -20 -32 -11 -10 -20 -24 -20 -31 0 -7 -8 -18 -17 -24 -15 -9 -12
-10 15 -6 23 4 32 2 32 -8 0 -19 -22 -26 -78 -26 l-45 0 21 23 c12 13 22 27
22 31 0 9 72 82 83 85 4 0 7 -5 7 -12z m-4150 -38 c-14 -25 -62 -32 -78 -11
-11 15 -9 18 20 25 18 5 37 13 42 18 14 13 26 -12 16 -32z m3229 18 c13 -16 5
-27 -21 -27 -11 0 -18 7 -18 20 0 23 22 27 39 7z m-4271 -41 c-2 -15 -7 -28
-13 -29 -12 -2 -19 38 -10 60 9 25 27 1 23 -31z m3177 29 c0 -5 -10 -11 -23
-13 -13 -2 -28 -14 -34 -28 -13 -27 -48 -33 -48 -8 0 30 42 64 75 62 17 -2 30
-7 30 -13z m-2840 -20 c0 -10 -6 -20 -12 -22 -8 -3 -13 5 -13 22 0 17 5 25 13
23 6 -3 12 -13 12 -23z m5525 -11 c0 -11 -5 -14 -16 -10 -9 3 -18 6 -20 6 -3
0 -2 5 1 10 10 16 35 12 35 -6z m-5397 -31 c-13 -2 -23 -11 -23 -19 0 -8 -5
-14 -10 -14 -7 0 -7 6 0 20 6 12 20 19 33 19 l22 -2 -22 -4z m282 -11 c-4 -9
-10 -25 -12 -34 -8 -27 -36 -21 -50 9 -18 38 -18 39 28 40 35 2 40 0 34 -15z
m5253 -9 c0 -10 3 -27 6 -38 8 -20 7 -20 -8 -1 -18 22 -21 56 -7 56 6 0 9 -8
9 -17z m-708 -8 c17 -20 11 -24 -22 -18 -16 3 -28 12 -28 19 0 19 34 18 50 -1z
m1198 -9 c2 -10 -1 -23 -7 -29 -16 -16 -34 6 -26 33 8 24 28 22 33 -4z m-3809
1 c14 -18 4 -27 -31 -27 -30 0 -35 9 -16 28 16 16 33 15 47 -1z m101 -8 c0
-11 -4 -17 -10 -14 -5 3 -10 13 -10 21 0 8 5 14 10 14 6 0 10 -9 10 -21z
m-2812 -10 c-2 -6 -8 -10 -13 -10 -5 0 -11 4 -13 10 -2 6 4 11 13 11 9 0 15
-5 13 -11z m1865 -4 c1 -5 -10 -11 -25 -13 -16 -2 -28 1 -28 7 0 20 49 26 53
6z m3687 -19 c0 -28 -24 -51 -45 -42 -32 12 -10 66 27 66 12 0 18 -8 18 -24z
m-3395 -16 c-5 -8 -11 -8 -17 -2 -6 6 -7 16 -3 22 5 8 11 8 17 2 6 -6 7 -16 3
-22z m3617 8 c12 -10 14 -27 10 -80 -4 -63 -13 -81 -26 -59 -3 5 -15 7 -26 4
-21 -6 -28 15 -11 33 5 5 12 24 16 42 5 24 3 33 -9 38 -9 3 -16 12 -16 20 0
17 41 18 62 2z m-5682 -13 c0 -8 -6 -15 -14 -15 -8 0 -16 -5 -18 -11 -2 -7
-13 -9 -26 -5 -26 9 -20 26 9 26 10 0 19 5 19 10 0 6 7 10 15 10 8 0 15 -7 15
-15z m576 -23 c-23 -23 -31 -8 -9 17 10 13 19 17 22 10 2 -6 -4 -18 -13 -27z
m1734 29 c0 -5 -6 -11 -12 -14 -18 -6 -39 3 -32 14 7 12 44 12 44 0z m-1920
-26 c0 -8 -4 -15 -9 -15 -13 0 -22 16 -14 24 11 11 23 6 23 -9z m320 7 c0 -12
-42 -30 -57 -25 -22 8 -14 22 15 26 15 2 30 5 35 6 4 0 7 -3 7 -7z m585 -2
c10 -16 -16 -43 -28 -31 -11 11 -2 41 12 41 5 0 13 -5 16 -10z m5110 0 c3 -5
-3 -10 -14 -10 -11 0 -23 5 -26 10 -3 6 3 10 14 10 11 0 23 -4 26 -10z m-6093
-42 c-6 -6 -15 -7 -22 -3 -8 5 -6 12 7 25 15 14 19 15 21 2 2 -8 -1 -19 -6
-24z m691 10 c-3 -18 -10 -35 -15 -37 -5 -1 -18 -12 -29 -24 -12 -13 -23 -17
-29 -11 -13 13 2 66 21 74 7 4 23 12 34 18 11 6 21 11 22 11 1 1 0 -14 -4 -31z
m2972 9 c14 -11 17 -22 12 -45 -4 -21 -1 -34 9 -43 13 -10 12 -14 -2 -30 -21
-23 -42 -24 -66 -2 -22 20 -23 36 -3 53 8 7 15 28 15 46 0 37 7 41 35 21z
m-3473 -20 c47 -24 76 -67 46 -67 -16 0 -80 39 -90 53 -7 12 -1 27 11 27 5 0
20 -6 33 -13z m-719 -67 c-6 -59 -6 -60 20 -60 34 0 43 -16 17 -30 -18 -10
-25 -8 -44 12 -12 13 -31 28 -42 34 -18 11 -18 13 9 23 23 9 27 16 27 51 0 24
4 39 10 35 6 -3 7 -30 3 -65z m6112 39 c-8 -12 -35 -12 -35 0 0 11 22 20 33
14 4 -2 5 -9 2 -14z m-5750 1 c-3 -5 -12 -10 -20 -10 -8 0 -17 5 -20 10 -4 6
5 10 20 10 15 0 24 -4 20 -10z m1049 -23 c-3 -9 -12 -17 -20 -17 -17 0 -17 5
-3 32 13 24 33 10 23 -15z m2556 23 c0 -5 -7 -10 -15 -10 -8 0 -15 5 -15 10 0
6 7 10 15 10 8 0 15 -4 15 -10z m-2420 -34 c0 -6 -5 -18 -10 -26 -13 -21 -34
2 -25 28 6 22 35 20 35 -2z m-1286 -1 c4 -10 -1 -15 -14 -15 -11 0 -20 7 -20
15 0 8 6 15 14 15 8 0 16 -7 20 -15z m1460 9 c9 -3 16 -11 16 -18 -1 -13 -65
-56 -84 -56 -8 0 -32 -20 -55 -45 -27 -30 -50 -45 -66 -45 -37 0 -40 19 -6 31
29 10 43 29 21 29 -5 0 -10 9 -10 20 0 17 5 18 51 13 49 -6 51 -5 47 18 -3 21
0 24 26 21 22 -2 27 0 23 11 -9 24 6 33 37 21z m2596 -14 c0 -11 -2 -20 -3
-20 -2 0 -12 9 -22 20 -18 19 -17 20 3 20 15 0 22 -6 22 -20z m126 -19 c-4 -6
-20 -11 -36 -11 -15 0 -31 -6 -33 -12 -3 -8 -6 -6 -6 5 -1 11 11 23 32 32 32
14 55 6 43 -14z m-4979 6 c4 -8 16 -17 26 -20 20 -8 14 -27 -9 -27 -19 0 -56
38 -49 50 9 14 23 12 32 -3z m661 -5 c4 -14 -34 -16 -42 -3 -6 10 13 21 28 17
6 -1 12 -8 14 -14z m70 0 c2 -7 -6 -12 -17 -12 -21 0 -27 11 -14 24 9 9 26 2
31 -12z m502 3 c0 -8 -6 -15 -14 -15 -17 0 -28 14 -19 24 12 12 33 6 33 -9z
m1530 6 c0 -16 -19 -23 -41 -16 -17 6 -19 9 -8 16 19 12 49 11 49 0z m443 -3
c3 -10 9 -10 29 1 41 21 54 4 22 -30 -22 -23 -30 -26 -42 -16 -8 6 -25 10 -38
9 -28 -4 -31 10 -8 32 19 19 31 20 37 4z m-1658 -45 c-4 -16 -1 -23 10 -23 27
0 16 -38 -15 -54 -29 -14 -30 -14 -30 8 0 12 -5 27 -10 32 -7 7 -5 22 5 48 14
32 18 36 31 25 10 -8 13 -21 9 -36z m1975 18 c0 -5 3 -16 6 -25 5 -12 0 -16
-22 -16 -38 0 -58 14 -51 34 7 17 67 23 67 7z m910 -6 c0 -26 -39 -95 -54 -95
-7 0 -21 9 -30 19 -17 19 -17 20 5 32 13 7 32 23 42 36 21 26 37 30 37 8z
m2029 6 c9 -6 10 -10 2 -16 -15 -8 -41 1 -41 15 0 12 20 13 39 1z m-5705 -20
c17 -19 17 -20 -4 -31 -25 -14 -70 -5 -70 13 0 10 30 31 51 36 3 0 14 -8 23
-18z m2376 -15 c0 -8 -7 -19 -15 -26 -13 -10 -15 -9 -15 12 0 14 3 28 6 31 9
9 24 -2 24 -17z m3058 3 c1 -8 -2 -29 -8 -45 l-12 -29 -19 24 c-19 24 -25 52
-12 65 12 12 48 2 51 -15z m-6427 -2 c-1 -12 -15 -9 -19 4 -3 6 1 10 8 8 6 -3
11 -8 11 -12z m1889 -7 c0 -21 -24 -28 -35 -10 -8 14 3 30 21 30 8 0 14 -9 14
-20z m130 10 c8 -5 12 -12 9 -15 -8 -8 -39 5 -39 16 0 11 11 11 30 -1z m1145
0 c7 -11 -61 -47 -71 -37 -11 10 27 47 47 47 10 0 21 -4 24 -10z m-909 -34 c7
-31 -1 -46 -26 -46 -26 0 -33 15 -15 30 8 7 15 19 15 26 0 23 19 15 26 -10z
m1890 12 c10 -15 -44 -58 -73 -58 -13 0 -23 5 -23 10 0 6 4 10 8 10 5 0 14 11
20 25 12 27 55 35 68 13z m-4206 -52 c-38 -11 -46 -3 -31 30 l11 26 25 -24 24
-23 -29 -9z m2580 45 c0 -9 -28 -41 -35 -41 -3 0 1 11 7 25 11 25 28 34 28 16z
m770 -12 c0 -12 -37 -12 -44 0 -3 4 -3 11 0 14 8 7 44 -4 44 -14z m221 6 c-1
-15 -24 -12 -29 3 -3 9 2 13 12 10 10 -1 17 -7 17 -13z m-3426 -16 c10 -15 -1
-23 -20 -15 -9 3 -13 10 -10 16 8 13 22 13 30 -1z m4951 -4 c9 -8 32 -15 53
-15 20 0 46 -6 57 -14 18 -14 18 -15 -6 -24 -14 -5 -47 -6 -75 -3 -48 6 -50 8
-53 39 -4 35 2 39 24 17z m-5006 -14 c-11 -21 -29 -36 -35 -29 -11 11 9 48 27
48 15 0 17 -3 8 -19z m6586 8 c7 -12 -15 -31 -28 -23 -4 3 -8 12 -8 20 0 17
26 19 36 3z m784 -14 c0 -8 -7 -15 -15 -15 -8 0 -15 7 -15 15 0 8 7 15 15 15
8 0 15 -7 15 -15z m-5560 -5 c13 -9 13 -11 0 -20 -19 -12 -60 -13 -60 0 0 8
28 29 40 30 3 0 12 -5 20 -10z m1334 4 c22 -9 20 -23 -9 -67 -32 -46 -58 -51
-45 -7 5 18 5 30 -1 30 -13 0 -11 24 3 38 13 13 28 15 52 6z m174 -11 c2 -8
-5 -13 -16 -13 -11 0 -27 -11 -36 -25 -9 -14 -21 -25 -26 -25 -18 0 -10 23 18
52 28 28 52 33 60 11z m-2728 -7 c0 -7 -14 -12 -35 -12 -21 0 -35 5 -35 12 0
7 14 12 35 12 21 0 35 -5 35 -12z m150 -16 c0 -35 27 -53 42 -27 5 10 16 17
24 17 8 0 17 7 20 15 4 8 15 15 26 15 16 0 19 -5 15 -22 -3 -13 1 -32 9 -42
22 -31 17 -46 -16 -46 -20 0 -30 5 -30 15 0 18 -52 33 -58 16 -6 -17 -38 -32
-56 -25 -12 5 -13 10 -3 31 9 21 8 27 -7 39 -23 16 -14 44 14 44 16 0 20 -7
20 -30z m1710 -9 c-2 -17 -37 -75 -48 -79 -17 -5 -10 82 9 104 12 14 14 14 26
-2 7 -10 13 -20 13 -23z m998 22 c-4 -22 -22 -20 -26 1 -2 10 3 16 13 16 10 0
15 -7 13 -17z m2089 -9 c-3 -4 -14 -3 -24 0 -15 6 -15 8 -3 16 16 10 39 -4 27
-16z m-5248 -21 c2 -2 -5 -3 -16 -3 -13 0 -23 8 -26 21 -5 20 -5 20 16 3 12
-11 24 -20 26 -21z m379 17 c11 -18 10 -20 -18 -20 -28 0 -30 2 -20 20 6 11
14 20 18 20 4 0 13 -9 20 -20z m740 -8 c2 -14 -2 -22 -12 -22 -8 0 -20 -8 -25
-17 -9 -16 -10 -15 -11 5 0 53 41 82 48 34z m1251 -21 c-7 -2 -18 4 -26 15
-22 30 -15 39 13 13 16 -15 21 -25 13 -28z m865 43 c9 -3 16 -15 16 -25 0 -14
-7 -19 -30 -19 -22 0 -30 5 -30 18 0 30 13 38 44 26z m1071 -4 c38 0 78 -41
77 -78 -1 -41 -8 -51 -31 -45 -14 3 -18 13 -17 36 1 26 -3 32 -30 40 -19 5
-37 20 -43 34 -10 22 -9 25 4 19 9 -3 27 -6 40 -6z m-3510 -26 c9 -14 15 -28
13 -30 -6 -6 -48 35 -48 46 0 18 18 10 35 -16z m3445 11 c0 -19 -24 -30 -41
-19 -9 5 -7 11 6 21 24 17 35 17 35 -2z m-3210 -16 c0 -5 -7 -9 -15 -9 -15 0
-20 12 -9 23 8 8 24 -1 24 -14z m5184 5 c9 -25 7 -34 -9 -34 -16 0 -38 34 -28
44 12 11 31 6 37 -10z m845 4 c0 -7 -4 -22 -8 -33 -8 -19 -8 -19 -20 3 -7 12
-9 27 -6 32 9 14 35 12 34 -2z m-3189 -8 c0 -5 -6 -10 -14 -10 -8 0 -18 5 -21
10 -3 6 3 10 14 10 12 0 21 -4 21 -10z m1456 -5 c-19 -14 -36 -12 -36 6 0 5
12 9 28 9 26 -1 26 -1 8 -15z m1194 -4 c0 -20 -13 -35 -23 -25 -7 8 4 44 14
44 5 0 9 -9 9 -19z m-5561 -48 l-34 -34 28 -24 c32 -28 34 -35 8 -35 -11 0
-25 13 -35 34 -10 22 -27 38 -47 45 -34 12 -31 33 4 30 42 -4 56 1 62 21 5 17
10 18 27 9 19 -11 19 -12 -13 -46z m-1461 23 c3 -12 -1 -17 -10 -14 -7 3 -15
13 -16 22 -3 12 1 17 10 14 7 -3 15 -13 16 -22z m127 14 c3 -5 -3 -10 -15 -10
-12 0 -18 5 -15 10 3 6 10 10 15 10 5 0 12 -4 15 -10z m1525 3 c0 -5 -5 -15
-10 -23 -8 -12 -10 -11 -10 8 0 12 5 22 10 22 6 0 10 -3 10 -7z m826 -41 c-10
-9 -36 14 -36 32 0 20 1 20 20 -4 10 -14 17 -26 16 -28z m-2168 13 c-9 -21
-18 -25 -55 -25 -78 0 -45 48 34 49 31 1 32 0 21 -24z m1439 6 c7 -10 9 -22 6
-25 -10 -9 -43 -7 -43 3 0 5 -3 16 -6 25 -9 23 28 21 43 -3z m2561 3 c-9 -9
-21 -13 -27 -10 -20 13 -11 26 16 26 25 0 26 -1 11 -16z m-3835 -14 c10 0 15
-4 12 -10 -9 -14 -41 -12 -54 3 -13 17 -2 32 13 17 5 -5 18 -10 29 -10z m3057
-11 c0 -12 -37 -12 -44 0 -3 4 -3 11 0 14 8 7 44 -4 44 -14z m243 6 c-4 -15
-36 -12 -41 3 -3 9 3 13 19 10 13 -1 23 -7 22 -13z m1197 -1 c0 -9 -7 -14 -17
-12 -25 5 -28 28 -4 28 12 0 21 -6 21 -16z m-4937 -18 c-14 -19 -20 -21 -26
-10 -11 19 0 34 24 34 19 0 19 -1 2 -24z m1178 14 c23 -13 26 -40 4 -40 -8 0
-15 -4 -15 -10 0 -5 -7 -10 -15 -10 -8 0 -15 5 -15 10 0 6 7 10 15 10 18 0 20
21 3 38 -15 15 -3 16 23 2z m333 -13 c8 -14 8 -20 -4 -27 -27 -18 -40 -11 -40
21 0 23 4 30 16 27 9 -2 22 -11 28 -21z m2666 9 c0 -8 -7 -17 -16 -20 -28 -11
-34 -6 -22 14 15 23 38 27 38 6z m1045 -6 c-14 -15 -21 -17 -26 -8 -11 17 -2
28 23 28 21 0 21 -1 3 -20z m-4428 -54 l-35 -35 -15 22 -14 21 -12 -22 c-6
-12 -20 -22 -31 -22 -10 0 -22 -4 -25 -10 -8 -13 -35 -13 -35 0 0 6 7 10 15
10 17 0 39 36 39 65 1 27 31 31 53 6 23 -27 33 -26 63 6 20 21 26 23 28 10 2
-9 -12 -32 -31 -51z m811 40 c8 -18 8 -27 -1 -34 -24 -20 -62 29 -40 51 13 14
30 6 41 -17z m413 12 c17 -10 23 -10 26 0 6 16 33 16 33 -1 0 -6 -19 -18 -42
-25 -24 -8 -51 -21 -60 -29 -17 -15 -18 -14 -18 6 0 27 17 61 30 61 6 0 20 -6
31 -12z m3283 -20 c11 -16 12 -26 5 -41 -9 -16 -13 -17 -24 -6 -8 8 -17 26
-20 42 -9 34 16 38 39 5z m1646 6 c0 -9 -7 -14 -17 -12 -25 5 -28 28 -4 28 12
0 21 -6 21 -16z m-5940 -16 c0 -19 -2 -20 -10 -8 -13 19 -13 30 0 30 6 0 10
-10 10 -22z m650 12 c-20 -13 -40 -13 -40 0 0 6 12 10 28 10 21 0 24 -2 12
-10z m4810 -15 c0 -14 -4 -25 -10 -25 -11 0 -14 33 -3 43 11 11 13 8 13 -18z
m628 2 c3 -12 -3 -17 -22 -17 -28 0 -29 1 -20 25 8 20 38 15 42 -8z m-6764 3
c31 -11 34 -30 6 -30 -11 0 -25 -9 -32 -20 -27 -43 -48 -18 -28 34 11 29 17
31 54 16z m5136 -37 c0 -19 -24 -16 -44 6 -17 18 -17 20 1 30 14 8 21 6 31 -6
6 -9 12 -23 12 -30z m-3062 29 c9 -7 8 -13 -8 -27 -20 -18 -20 -18 -20 8 0 28
6 32 28 19z m1962 -2 c0 -5 -12 -10 -27 -9 -25 0 -26 1 -8 9 27 12 35 12 35 0z
m700 0 c23 -15 -1 -45 -36 -45 -37 0 -46 31 -12 44 30 12 30 12 48 1z m-2813
-45 c-6 -17 -37 -18 -43 -1 -3 9 0 23 7 32 12 14 14 14 26 -2 7 -10 12 -23 10
-29z m-1188 -19 c-26 -30 -37 -32 -46 -11 -3 9 4 25 18 39 19 18 27 20 37 10
12 -10 10 -16 -9 -38z m521 29 c0 -8 -7 -15 -15 -15 -8 0 -15 7 -15 15 0 8 7
15 15 15 8 0 15 -7 15 -15z m-436 -25 c9 0 16 -4 16 -10 0 -5 -8 -10 -18 -10
-20 0 -54 35 -44 45 4 3 12 -1 18 -9 6 -9 19 -16 28 -16z m2396 15 c7 -9 9
-19 5 -23 -4 -4 -10 -1 -12 6 -3 6 -11 12 -19 12 -8 0 -14 5 -14 10 0 15 26
12 40 -5z m640 -3 c0 -13 -12 -22 -22 -16 -10 6 -1 24 13 24 5 0 9 -4 9 -8z
m1420 -22 c0 -22 -16 -26 -40 -10 -13 9 -13 11 0 20 24 16 40 12 40 -10z
m-3960 0 c0 -5 -7 -10 -15 -10 -8 0 -15 5 -15 10 0 6 7 10 15 10 8 0 15 -4 15
-10z"/>
<path d="M4570 1219 c0 -12 8 -23 20 -26 11 -3 20 -9 20 -14 0 -5 7 -9 15 -9
9 0 15 9 15 23 0 13 6 29 13 37 10 12 9 12 -6 1 -14 -11 -23 -11 -43 -2 -33
15 -34 14 -34 -10z"/>
<path d="M7548 1223 c-10 -2 -18 -13 -18 -22 0 -14 6 -17 25 -13 16 3 25 11
25 23 0 19 -2 20 -32 12z"/>
<path d="M3047 1208 c-10 -5 -21 -7 -26 -3 -5 3 -4 -8 2 -25 9 -24 17 -30 40
-30 25 0 28 -2 17 -15 -19 -22 3 -44 28 -29 23 15 61 -3 68 -33 7 -26 30 -29
57 -9 23 17 22 32 -3 39 -21 5 -28 41 -10 52 18 11 10 26 -12 23 -16 -2 -22
-9 -20 -20 3 -20 -32 -26 -43 -8 -3 6 -15 10 -25 10 -12 0 -22 9 -26 24 -7 29
-24 38 -47 24z"/>
<path d="M4801 1211 c-10 -7 -10 -10 -1 -16 6 -4 16 -3 22 3 13 13 -4 23 -21
13z"/>
<path d="M4874 1189 c29 -23 40 -21 30 5 -3 9 -17 16 -31 16 l-26 0 27 -21z"/>
<path d="M1822 1190 c-12 -5 -32 -19 -44 -30 -20 -19 -21 -21 -6 -37 13 -13
22 -14 45 -6 15 6 47 16 71 22 50 14 53 25 12 46 -33 17 -45 18 -78 5z"/>
<path d="M2575 1181 c-3 -2 -5 -12 -5 -22 0 -9 -7 -19 -15 -23 -21 -8 -19 -33
4 -46 29 -15 39 -12 43 13 2 12 10 22 18 22 8 0 18 8 22 18 4 9 14 17 23 17 8
0 15 6 15 13 0 9 -16 13 -50 13 -28 0 -53 -2 -55 -5z"/>
<path d="M7586 1175 c-10 -26 -7 -35 9 -35 8 0 15 7 15 15 0 8 0 18 1 22 1 15
-19 13 -25 -2z"/>
<path d="M6505 1169 c-10 -15 3 -25 16 -12 7 7 7 13 1 17 -6 3 -14 1 -17 -5z"/>
<path d="M3284 1138 c-4 -13 -2 -24 5 -26 6 -2 11 -10 11 -17 0 -24 65 -30 94
-8 32 23 32 31 1 43 -14 5 -25 15 -25 22 0 7 -9 2 -20 -12 -20 -25 -20 -25
-20 -2 0 30 -36 30 -46 0z"/>
<path d="M3926 1153 c-11 -11 -6 -23 9 -23 8 0 15 4 15 9 0 13 -16 22 -24 14z"/>
<path d="M2817 1143 c-14 -13 -6 -23 16 -23 15 0 29 -9 37 -25 12 -22 14 -23
25 -8 13 17 25 14 63 -13 33 -24 29 3 -7 46 -27 33 -30 34 -55 21 -20 -11 -29
-12 -38 -3 -13 13 -31 16 -41 5z"/>
<path d="M4641 1121 c-10 -7 -10 -10 -1 -16 6 -4 16 -3 22 3 13 13 -4 23 -21
13z"/>
<path d="M4790 1115 c0 -10 7 -15 18 -13 21 4 19 22 -2 26 -10 2 -16 -3 -16
-13z"/>
<path d="M4990 1122 c0 -16 24 -32 47 -32 16 0 27 -8 33 -26 11 -29 43 -30 48
-2 6 31 -42 68 -88 68 -22 0 -40 -4 -40 -8z"/>
<path d="M2122 1108 c7 -20 34 -32 54 -23 18 8 17 9 -3 12 -13 3 -23 9 -23 14
0 5 -7 9 -16 9 -9 0 -14 -5 -12 -12z"/>
<path d="M2726 1113 c-3 -3 -6 -14 -6 -24 0 -10 -8 -20 -18 -24 -17 -5 -18
-10 -8 -40 6 -19 15 -35 20 -35 5 0 20 -10 33 -22 22 -20 24 -19 27 14 1 7
-10 15 -24 18 -30 7 -42 58 -16 72 17 10 21 34 7 42 -4 3 -11 3 -15 -1z"/>
<path d="M3566 1104 c-4 -10 -1 -14 6 -12 15 5 23 28 10 28 -5 0 -13 -7 -16
-16z"/>
<path d="M3712 1088 c-46 -35 -41 -49 16 -41 20 3 32 11 32 21 0 8 7 24 17 34
15 17 15 18 -3 18 -10 -1 -38 -15 -62 -32z"/>
<path d="M7492 1098 c2 -15 11 -24 26 -26 26 -4 29 15 5 34 -26 19 -35 17 -31
-8z"/>
<path d="M4890 1091 c0 -12 6 -21 15 -21 8 0 15 4 15 9 0 5 -7 14 -15 21 -13
10 -15 9 -15 -9z"/>
<path d="M5160 1087 c0 -18 38 -57 54 -57 24 0 37 25 23 42 -16 21 -77 32 -77
15z"/>
<path d="M5957 1093 c-16 -15 -6 -34 15 -31 29 4 38 38 10 38 -10 0 -22 -3
-25 -7z"/>
<path d="M8360 1088 c0 -7 5 -20 10 -28 9 -13 11 -13 20 0 5 8 8 20 7 25 -5
15 -37 18 -37 3z"/>
<path d="M1860 1080 c-8 -5 -45 -10 -81 -10 -44 0 -72 -5 -85 -15 -17 -15 -10
-15 81 -10 55 3 125 5 157 5 32 -1 59 4 63 10 12 19 -2 22 -40 9 -33 -12 -38
-12 -50 4 -14 19 -24 21 -45 7z"/>
<path d="M3112 1078 c-7 -7 -12 -22 -12 -35 0 -19 5 -23 29 -23 l29 0 -15 33
c-9 17 -17 33 -18 34 -1 2 -7 -3 -13 -9z"/>
<path d="M8960 1075 c0 -8 9 -15 20 -15 11 0 20 7 20 15 0 8 -9 15 -20 15 -11
0 -20 -7 -20 -15z"/>
<path d="M4294 1065 c-18 -15 -18 -15 5 -13 14 2 26 9 29 16 5 17 -10 15 -34
-3z"/>
<path d="M5292 1068 c-17 -17 -15 -48 4 -55 23 -8 36 10 28 41 -7 29 -14 32
-32 14z"/>
<path d="M2302 1054 c4 -21 22 -23 26 -1 2 10 -3 17 -13 17 -10 0 -15 -6 -13
-16z"/>
<path d="M2785 1061 c-6 -11 33 -26 43 -16 4 3 0 10 -8 15 -19 12 -27 12 -35
1z"/>
<path d="M3414 1055 c-10 -26 6 -36 32 -18 19 12 22 18 12 24 -20 13 -38 11
-44 -6z"/>
<path d="M7092 1063 c-10 -4 -9 -9 4 -24 23 -26 34 -24 34 6 0 24 -11 29 -38
18z"/>
<path d="M7712 1048 c3 -7 13 -15 24 -17 16 -3 17 -1 5 13 -16 19 -34 21 -29
4z"/>
<path d="M3303 1015 l-28 -24 25 -9 c35 -13 60 -4 60 23 0 33 -26 38 -57 10z"/>
<path d="M4827 1034 c-17 -17 -4 -25 36 -22 23 2 42 8 42 13 0 12 -67 19 -78
9z"/>
<path d="M5455 1030 c-4 -6 6 -10 22 -10 22 0 25 2 13 10 -19 12 -27 12 -35 0z"/>
<path d="M8142 1008 c15 -22 58 -38 58 -21 -1 19 -29 43 -50 43 -21 0 -22 -1
-8 -22z"/>
<path d="M8862 1017 c-15 -17 -6 -27 25 -27 18 0 24 5 21 17 -4 22 -31 28 -46
10z"/>
<path d="M5120 996 c0 -18 39 -31 52 -18 15 15 0 32 -28 32 -14 0 -24 -6 -24
-14z"/>
<path d="M2616 958 c-15 -21 -15 -23 6 -31 25 -9 65 23 54 42 -12 18 -44 12
-60 -11z"/>
<path d="M1396 881 c-6 -10 3 -41 11 -41 3 0 16 9 29 19 20 16 21 20 8 25 -22
9 -42 7 -48 -3z"/>
<path d="M3315 876 c-19 -14 -19 -15 -2 -22 22 -8 30 -1 25 21 -3 14 -5 14
-23 1z"/>
<path d="M8964 865 c-9 -21 3 -45 21 -45 10 0 15 10 15 30 0 32 -26 43 -36 15z"/>
<path d="M1280 840 c0 -5 7 -10 15 -10 8 0 15 5 15 10 0 6 -7 10 -15 10 -8 0
-15 -4 -15 -10z"/>
<path d="M8900 835 c-11 -13 -11 -19 4 -33 15 -15 18 -15 26 -2 22 33 -6 64
-30 35z"/>
<path d="M446 821 c-4 -6 -3 -19 3 -28 9 -17 10 -17 17 0 8 21 -10 45 -20 28z"/>
<path d="M1560 803 c0 -25 1 -26 20 -8 21 19 18 35 -6 35 -9 0 -14 -10 -14
-27z"/>
<path d="M1847 674 c-9 -10 2 -24 19 -24 8 0 14 7 14 15 0 15 -21 21 -33 9z"/>
<path d="M1830 601 c0 -10 24 -21 46 -21 8 0 11 6 8 15 -6 16 -54 21 -54 6z"/>
<path d="M1793 543 c-4 -10 -20 -35 -36 -55 -17 -21 -27 -41 -23 -45 4 -4 12
0 17 10 6 9 17 17 24 17 8 0 15 6 15 13 0 7 9 21 21 30 21 19 22 38 1 45 -7 2
-15 -5 -19 -15z"/>
<path d="M1430 516 c0 -10 9 -16 21 -16 24 0 21 23 -4 28 -10 2 -17 -3 -17
-12z"/>
<path d="M1370 490 c0 -6 -11 -22 -24 -35 -14 -13 -28 -35 -31 -47 l-7 -23 21
23 c12 12 30 22 39 22 10 0 26 6 36 13 15 11 17 17 7 35 -12 22 -41 30 -41 12z"/>
<path d="M4222 429 c2 -7 10 -15 17 -17 8 -3 12 1 9 9 -2 7 -10 15 -17 17 -8
3 -12 -1 -9 -9z"/>
<path d="M4105 399 c-10 -15 1 -23 20 -15 9 3 13 10 10 16 -8 13 -22 13 -30
-1z"/>
<path d="M1100 274 c0 -17 22 -14 28 4 2 7 -3 12 -12 12 -9 0 -16 -7 -16 -16z"/>
</g>
</svg>
